M48
METRIC,LZ,000.000
;FILE_FORMAT=3:3
;TYPE=PLATED
;Layer: PTH_Through
;EasyEDA v6.5.15, 2022-09-05 00:32:20
;07c8b65852c84e1a800055945528140b,10
;Gerber Generator version 0.2
;Holesize 1 = 0.306 mm
T01C0.306
;Holesize 2 = 0.915 mm
T02C0.915
;Holesize 3 = 1.000 mm
T03C1.000
;Holesize 4 = 1.001 mm
T04C1.001
;Holesize 5 = 1.016 mm
T05C1.016
;Holesize 6 = 1.200 mm
T06C1.200
%
G05
G90
T01
X126314Y010566
X047860Y048321
X092875Y-014267
X063404Y057246
X086951Y-002716
X074770Y016050
X061058Y017659
X058249Y023915
X053629Y012659
X051390Y017782
X066530Y048884
T02
X042381Y-000643
X042381Y-005643
X077481Y-000643
X077481Y-005643
X072481Y007357
X067481Y007357
X062481Y007357
X045381Y008957
X047881Y008957
X050381Y008957
X052881Y008957
X055381Y008957
X057881Y008957
X095721Y043934
X095721Y038934
X130821Y043934
X130821Y038934
X125821Y051934
X120821Y051934
X115821Y051934
X098721Y053534
X101221Y053534
X103721Y053534
X106221Y053534
X108721Y053534
X111221Y053534
X092583Y-029210
X089789Y-029210
X105283Y-029210
X102489Y-029210
X119126Y-029210
X116332Y-029210
X025908Y021717
X025908Y019177
X025908Y016637
X025908Y014097
X025908Y011557
X025908Y024257
X025908Y026797
X025908Y029337
X025908Y031877
X025908Y034417
T03
X041656Y045339
X044196Y045339
X046736Y045339
X049276Y045339
X051816Y045339
X054356Y045339
X056896Y045339
X059436Y045339
X061976Y045339
X064516Y045339
X067056Y045339
X069596Y045339
X072136Y045339
X074676Y045339
X077216Y045339
X044196Y019939
X046736Y019939
X049276Y019939
X051816Y019939
X054356Y019939
X056896Y019939
X059436Y019939
X061976Y019939
X064516Y019939
X067056Y019939
X069596Y019939
X072136Y019939
X074676Y019939
X077216Y019939
X041656Y019939
X079756Y045339
X082296Y045339
X039116Y045339
X039116Y019939
X079756Y019939
X082296Y019939
X084836Y045339
X084836Y019939
T04
X067564Y053086
X070104Y053086
X072644Y053086
X075184Y053086
X049530Y053594
X052070Y053594
X054610Y053594
X057150Y053594
T05
X027432Y-019053G85X027432Y-019047
X027432Y-026673G85X027432Y-026667
X020193Y-001654G85X020193Y-001648
X020193Y-009274G85X020193Y-009268
T06
X109855Y000127
X109855Y004953
X097028Y004953
X097028Y000127
M30
