G04 Layer: TopPasteMaskLayer*
G04 EasyEDA v6.5.15, 2022-09-05 00:32:20*
G04 07c8b65852c84e1a800055945528140b,10*
G04 Gerber Generator version 0.2*
G04 Scale: 100 percent, Rotated: No, Reflected: No *
G04 Dimensions in millimeters *
G04 leading zeros omitted , absolute positions ,4 integer and 5 decimal *
%FSLAX45Y45*%
%MOMM*%

%ADD10R,2.3000X4.0000*%
%ADD11R,2.3000X4.4000*%
%ADD12R,1.5000X1.3589*%
%ADD13R,0.8999X1.0000*%

%LPD*%
G36*
X8926779Y-1293418D02*
G01*
X8921800Y-1298397D01*
X8921800Y-1321206D01*
X8958783Y-1321206D01*
X8958783Y-1354226D01*
X8921800Y-1354226D01*
X8921800Y-1378407D01*
X8926779Y-1383385D01*
X9006789Y-1383385D01*
X9011767Y-1378407D01*
X9011767Y-1298397D01*
X9006789Y-1293418D01*
G37*
G36*
X8767775Y-1293418D02*
G01*
X8762796Y-1298397D01*
X8762796Y-1378407D01*
X8767775Y-1383385D01*
X8846769Y-1383385D01*
X8851798Y-1378407D01*
X8851798Y-1354226D01*
X8813800Y-1354226D01*
X8813800Y-1321206D01*
X8851798Y-1321206D01*
X8851798Y-1298397D01*
X8846769Y-1293418D01*
G37*
G36*
X8926779Y-785418D02*
G01*
X8921800Y-790397D01*
X8921800Y-813206D01*
X8958783Y-813206D01*
X8958783Y-846226D01*
X8921800Y-846226D01*
X8921800Y-870407D01*
X8926779Y-875385D01*
X9006789Y-875385D01*
X9011767Y-870407D01*
X9011767Y-790397D01*
X9006789Y-785418D01*
G37*
G36*
X8767775Y-785418D02*
G01*
X8762796Y-790397D01*
X8762796Y-870407D01*
X8767775Y-875385D01*
X8846769Y-875385D01*
X8851798Y-870407D01*
X8851798Y-846226D01*
X8813800Y-846226D01*
X8813800Y-813206D01*
X8851798Y-813206D01*
X8851798Y-790397D01*
X8846769Y-785418D01*
G37*
D10*
G01*
X2336800Y4191101D03*
D11*
G01*
X2336800Y5791098D03*
D10*
G01*
X12801600Y-863498D03*
D11*
G01*
X12801600Y736498D03*
D12*
G01*
X8994571Y-1821002D03*
G01*
X8754567Y-1821002D03*
D13*
G01*
X8997670Y-271602D03*
G01*
X8827668Y-271602D03*
M02*
