G04 Layer: TopSilkscreenLayer*
G04 EasyEDA v6.5.15, 2022-09-05 00:32:20*
G04 07c8b65852c84e1a800055945528140b,10*
G04 Gerber Generator version 0.2*
G04 Scale: 100 percent, Rotated: No, Reflected: No *
G04 Dimensions in millimeters *
G04 leading zeros omitted , absolute positions ,4 integer and 5 decimal *
%FSLAX45Y45*%
%MOMM*%

%ADD10C,0.1524*%
%ADD11C,0.2032*%
%ADD12C,0.2540*%
%ADD13C,0.1500*%
%ADD14C,0.0800*%
%ADD15C,0.4000*%
%ADD16C,0.2000*%
%ADD17C,0.0135*%

%LPD*%
D10*
X3226815Y4951729D02*
G01*
X3226815Y5003545D01*
X3180079Y5008879D01*
X3185159Y5003545D01*
X3190493Y4988052D01*
X3190493Y4972304D01*
X3185159Y4956810D01*
X3175000Y4946395D01*
X3159252Y4941315D01*
X3148838Y4941315D01*
X3133343Y4946395D01*
X3122929Y4956810D01*
X3117850Y4972304D01*
X3117850Y4988052D01*
X3122929Y5003545D01*
X3128009Y5008879D01*
X3138424Y5013960D01*
X3226815Y4907026D02*
G01*
X3117850Y4865370D01*
X3226815Y4823713D02*
G01*
X3117850Y4865370D01*
X13670788Y-40639D02*
G01*
X13676122Y-51054D01*
X13691616Y-66547D01*
X13582650Y-66547D01*
X13665708Y-106171D02*
G01*
X13670788Y-106171D01*
X13681202Y-111252D01*
X13686536Y-116586D01*
X13691616Y-127000D01*
X13691616Y-147573D01*
X13686536Y-157987D01*
X13681202Y-163321D01*
X13670788Y-168402D01*
X13660374Y-168402D01*
X13649959Y-163321D01*
X13634466Y-152907D01*
X13582650Y-100837D01*
X13582650Y-173736D01*
X13691616Y-208026D02*
G01*
X13582650Y-249428D01*
X13691616Y-291084D02*
G01*
X13582650Y-249428D01*
X8800533Y-2039950D02*
G01*
X8805867Y-2050364D01*
X8816281Y-2060778D01*
X8826441Y-2065858D01*
X8847269Y-2065858D01*
X8857683Y-2060778D01*
X8868097Y-2050364D01*
X8873431Y-2039950D01*
X8878511Y-2024202D01*
X8878511Y-1998294D01*
X8873431Y-1982800D01*
X8868097Y-1972386D01*
X8857683Y-1961972D01*
X8847269Y-1956892D01*
X8826441Y-1956892D01*
X8816281Y-1961972D01*
X8805867Y-1972386D01*
X8800533Y-1982800D01*
X8766243Y-2045030D02*
G01*
X8755829Y-2050364D01*
X8740335Y-2065858D01*
X8740335Y-1956892D01*
X8902700Y-37084D02*
G01*
X8902700Y-146050D01*
X8902700Y-146050D02*
G01*
X8964929Y-146050D01*
X8999220Y-37084D02*
G01*
X8999220Y-146050D01*
X8999220Y-37084D02*
G01*
X9066784Y-37084D01*
X8999220Y-88900D02*
G01*
X9040875Y-88900D01*
X8999220Y-146050D02*
G01*
X9066784Y-146050D01*
X9101074Y-37084D02*
G01*
X9101074Y-146050D01*
X9101074Y-37084D02*
G01*
X9137650Y-37084D01*
X9153143Y-42163D01*
X9163558Y-52578D01*
X9168638Y-62992D01*
X9173972Y-78739D01*
X9173972Y-104647D01*
X9168638Y-120142D01*
X9163558Y-130555D01*
X9153143Y-140970D01*
X9137650Y-146050D01*
X9101074Y-146050D01*
X9208261Y-57912D02*
G01*
X9218675Y-52578D01*
X9234170Y-37084D01*
X9234170Y-146050D01*
X8887274Y-1121486D02*
G01*
X8887274Y-1230452D01*
X8887274Y-1121486D02*
G01*
X8934010Y-1121486D01*
X8949504Y-1126566D01*
X8954838Y-1131900D01*
X8959918Y-1142314D01*
X8959918Y-1152728D01*
X8954838Y-1163142D01*
X8949504Y-1168222D01*
X8934010Y-1173302D01*
X8887274Y-1173302D01*
X8923596Y-1173302D02*
G01*
X8959918Y-1230452D01*
X8994208Y-1142314D02*
G01*
X9004622Y-1136980D01*
X9020370Y-1121486D01*
X9020370Y-1230452D01*
X8887274Y-613486D02*
G01*
X8887274Y-722452D01*
X8887274Y-613486D02*
G01*
X8934010Y-613486D01*
X8949504Y-618566D01*
X8954838Y-623900D01*
X8959918Y-634314D01*
X8959918Y-644728D01*
X8954838Y-655142D01*
X8949504Y-660222D01*
X8934010Y-665302D01*
X8887274Y-665302D01*
X8923596Y-665302D02*
G01*
X8959918Y-722452D01*
X8999542Y-639394D02*
G01*
X8999542Y-634314D01*
X9004622Y-623900D01*
X9009956Y-618566D01*
X9020370Y-613486D01*
X9040944Y-613486D01*
X9051358Y-618566D01*
X9056692Y-623900D01*
X9061772Y-634314D01*
X9061772Y-644728D01*
X9056692Y-655142D01*
X9046278Y-670636D01*
X8994208Y-722452D01*
X9067106Y-722452D01*
X1891284Y-2590800D02*
G01*
X2000250Y-2590800D01*
X1891284Y-2590800D02*
G01*
X1891284Y-2544063D01*
X1896363Y-2528570D01*
X1901697Y-2523236D01*
X1912112Y-2518155D01*
X1927605Y-2518155D01*
X1938020Y-2523236D01*
X1943100Y-2528570D01*
X1948434Y-2544063D01*
X1948434Y-2590800D01*
X1891284Y-2483865D02*
G01*
X2000250Y-2483865D01*
X1891284Y-2449576D02*
G01*
X2000250Y-2449576D01*
X1891284Y-2449576D02*
G01*
X1891284Y-2382012D01*
X1943100Y-2449576D02*
G01*
X1943100Y-2407920D01*
X2000250Y-2449576D02*
G01*
X2000250Y-2382012D01*
X1891284Y-2274823D02*
G01*
X2000250Y-2347721D01*
X1891284Y-2347721D02*
G01*
X1891284Y-2274823D01*
X2000250Y-2347721D02*
G01*
X2000250Y-2274823D01*
X1891284Y-2209545D02*
G01*
X1896363Y-2219960D01*
X1906778Y-2230120D01*
X1917192Y-2235454D01*
X1932940Y-2240534D01*
X1958847Y-2240534D01*
X1974341Y-2235454D01*
X1984756Y-2230120D01*
X1995170Y-2219960D01*
X2000250Y-2209545D01*
X2000250Y-2188718D01*
X1995170Y-2178304D01*
X1984756Y-2167889D01*
X1974341Y-2162810D01*
X1958847Y-2157476D01*
X1932940Y-2157476D01*
X1917192Y-2162810D01*
X1906778Y-2167889D01*
X1896363Y-2178304D01*
X1891284Y-2188718D01*
X1891284Y-2209545D01*
X1917192Y-2118105D02*
G01*
X1912112Y-2118105D01*
X1901697Y-2112771D01*
X1896363Y-2107692D01*
X1891284Y-2097278D01*
X1891284Y-2076450D01*
X1896363Y-2066036D01*
X1901697Y-2060955D01*
X1912112Y-2055621D01*
X1922526Y-2055621D01*
X1932940Y-2060955D01*
X1948434Y-2071370D01*
X2000250Y-2123186D01*
X2000250Y-2050542D01*
X1154684Y-711200D02*
G01*
X1263650Y-711200D01*
X1154684Y-711200D02*
G01*
X1154684Y-664463D01*
X1159763Y-648970D01*
X1165097Y-643636D01*
X1175512Y-638555D01*
X1191005Y-638555D01*
X1201420Y-643636D01*
X1206500Y-648970D01*
X1211834Y-664463D01*
X1211834Y-711200D01*
X1154684Y-604265D02*
G01*
X1263650Y-604265D01*
X1154684Y-569976D02*
G01*
X1263650Y-569976D01*
X1154684Y-569976D02*
G01*
X1154684Y-502412D01*
X1206500Y-569976D02*
G01*
X1206500Y-528320D01*
X1263650Y-569976D02*
G01*
X1263650Y-502412D01*
X1154684Y-395223D02*
G01*
X1263650Y-468121D01*
X1154684Y-468121D02*
G01*
X1154684Y-395223D01*
X1263650Y-468121D02*
G01*
X1263650Y-395223D01*
X1154684Y-329945D02*
G01*
X1159763Y-340360D01*
X1170178Y-350520D01*
X1180592Y-355854D01*
X1196339Y-360934D01*
X1222247Y-360934D01*
X1237742Y-355854D01*
X1248155Y-350520D01*
X1258570Y-340360D01*
X1263650Y-329945D01*
X1263650Y-309118D01*
X1258570Y-298704D01*
X1248155Y-288289D01*
X1237742Y-283210D01*
X1222247Y-277876D01*
X1196339Y-277876D01*
X1180592Y-283210D01*
X1170178Y-288289D01*
X1159763Y-298704D01*
X1154684Y-309118D01*
X1154684Y-329945D01*
X1175512Y-243586D02*
G01*
X1170178Y-233171D01*
X1154684Y-217678D01*
X1263650Y-217678D01*
X3516871Y3263900D02*
G01*
X3594849Y3263900D01*
X3610343Y3268979D01*
X3620757Y3279394D01*
X3625837Y3295142D01*
X3625837Y3305555D01*
X3620757Y3321050D01*
X3610343Y3331463D01*
X3594849Y3336544D01*
X3516871Y3336544D01*
X3537699Y3370834D02*
G01*
X3532365Y3381247D01*
X3516871Y3396995D01*
X3625837Y3396995D01*
D11*
X7690345Y2169413D02*
G01*
X7683487Y2162555D01*
X7679931Y2152142D01*
X7679931Y2138171D01*
X7683487Y2127757D01*
X7690345Y2120900D01*
X7697457Y2120900D01*
X7704315Y2124455D01*
X7707617Y2127757D01*
X7711173Y2134870D01*
X7718031Y2155444D01*
X7721587Y2162555D01*
X7725143Y2165857D01*
X7732001Y2169413D01*
X7742415Y2169413D01*
X7749273Y2162555D01*
X7752829Y2152142D01*
X7752829Y2138171D01*
X7749273Y2127757D01*
X7742415Y2120900D01*
X7679931Y2192273D02*
G01*
X7752829Y2192273D01*
X7679931Y2192273D02*
G01*
X7679931Y2216404D01*
X7683487Y2226818D01*
X7690345Y2233929D01*
X7697457Y2237231D01*
X7707617Y2240787D01*
X7725143Y2240787D01*
X7735557Y2237231D01*
X7742415Y2233929D01*
X7749273Y2226818D01*
X7752829Y2216404D01*
X7752829Y2192273D01*
X7697457Y2266950D02*
G01*
X7693901Y2266950D01*
X7687043Y2270505D01*
X7683487Y2274062D01*
X7679931Y2280920D01*
X7679931Y2294889D01*
X7683487Y2301747D01*
X7687043Y2305050D01*
X7693901Y2308605D01*
X7700759Y2308605D01*
X7707617Y2305050D01*
X7718031Y2298192D01*
X7752829Y2263647D01*
X7752829Y2312162D01*
X8555977Y3136900D02*
G01*
X8624303Y3136900D01*
X8637765Y3141471D01*
X8646909Y3150615D01*
X8651481Y3164078D01*
X8651481Y3173221D01*
X8646909Y3186937D01*
X8637765Y3196081D01*
X8624303Y3200654D01*
X8555977Y3200654D01*
X8569439Y3294126D02*
G01*
X8560549Y3284981D01*
X8555977Y3271520D01*
X8555977Y3253231D01*
X8560549Y3239515D01*
X8569439Y3230626D01*
X8578837Y3230626D01*
X8587981Y3235197D01*
X8592299Y3239515D01*
X8597125Y3248660D01*
X8606015Y3276092D01*
X8610587Y3284981D01*
X8615159Y3289554D01*
X8624303Y3294126D01*
X8637765Y3294126D01*
X8646909Y3284981D01*
X8651481Y3271520D01*
X8651481Y3253231D01*
X8646909Y3239515D01*
X8637765Y3230626D01*
X8555977Y3324097D02*
G01*
X8651481Y3324097D01*
X8555977Y3324097D02*
G01*
X8555977Y3364992D01*
X8560549Y3378707D01*
X8565375Y3383279D01*
X8574265Y3387852D01*
X8583409Y3387852D01*
X8592299Y3383279D01*
X8597125Y3378707D01*
X8601189Y3364992D01*
X8601189Y3324097D02*
G01*
X8601189Y3364992D01*
X8606015Y3378707D01*
X8610587Y3383279D01*
X8619731Y3387852D01*
X8632939Y3387852D01*
X8642337Y3383279D01*
X8646909Y3378707D01*
X8651481Y3364992D01*
X8651481Y3324097D01*
X8410181Y3009900D02*
G01*
X8473681Y3009900D01*
X8428469Y3009900D02*
G01*
X8414499Y3023615D01*
X8410181Y3032505D01*
X8410181Y3046221D01*
X8414499Y3055365D01*
X8428469Y3059937D01*
X8473681Y3059937D01*
X8428469Y3059937D02*
G01*
X8414499Y3073654D01*
X8410181Y3082544D01*
X8410181Y3096260D01*
X8414499Y3105404D01*
X8428469Y3109976D01*
X8473681Y3109976D01*
X8378177Y3139947D02*
G01*
X8382749Y3144520D01*
X8378177Y3149092D01*
X8373859Y3144520D01*
X8378177Y3139947D01*
X8410181Y3144520D02*
G01*
X8473681Y3144520D01*
X8423643Y3233420D02*
G01*
X8414499Y3224529D01*
X8410181Y3215386D01*
X8410181Y3201670D01*
X8414499Y3192526D01*
X8423643Y3183636D01*
X8437359Y3179063D01*
X8446757Y3179063D01*
X8460219Y3183636D01*
X8469109Y3192526D01*
X8473681Y3201670D01*
X8473681Y3215386D01*
X8469109Y3224529D01*
X8460219Y3233420D01*
X8410181Y3263645D02*
G01*
X8473681Y3263645D01*
X8437359Y3263645D02*
G01*
X8423643Y3267963D01*
X8414499Y3277107D01*
X8410181Y3286252D01*
X8410181Y3299968D01*
X8410181Y3352545D02*
G01*
X8414499Y3343655D01*
X8423643Y3334512D01*
X8437359Y3329939D01*
X8446757Y3329939D01*
X8460219Y3334512D01*
X8469109Y3343655D01*
X8473681Y3352545D01*
X8473681Y3366262D01*
X8469109Y3375405D01*
X8460219Y3384550D01*
X8446757Y3388868D01*
X8437359Y3388868D01*
X8423643Y3384550D01*
X8414499Y3375405D01*
X8410181Y3366262D01*
X8410181Y3352545D01*
X8378177Y3488944D02*
G01*
X8473681Y3488944D01*
X8378177Y3488944D02*
G01*
X8378177Y3529837D01*
X8382749Y3543554D01*
X8387321Y3548126D01*
X8396719Y3552697D01*
X8405609Y3552697D01*
X8414499Y3548126D01*
X8419071Y3543554D01*
X8423643Y3529837D01*
X8423643Y3488944D02*
G01*
X8423643Y3529837D01*
X8428469Y3543554D01*
X8432787Y3548126D01*
X8441931Y3552697D01*
X8455393Y3552697D01*
X8464537Y3548126D01*
X8469109Y3543554D01*
X8473681Y3529837D01*
X8473681Y3488944D01*
X5030965Y2730500D02*
G01*
X5116817Y2730500D01*
X5030965Y2730500D02*
G01*
X5030965Y2783586D01*
X5071859Y2730500D02*
G01*
X5071859Y2763265D01*
X5116817Y2730500D02*
G01*
X5116817Y2783586D01*
X5043157Y2867913D02*
G01*
X5035029Y2859786D01*
X5030965Y2847594D01*
X5030965Y2831084D01*
X5035029Y2818892D01*
X5043157Y2810763D01*
X5051285Y2810763D01*
X5059413Y2814828D01*
X5063731Y2818892D01*
X5067795Y2827020D01*
X5075923Y2851657D01*
X5079987Y2859786D01*
X5084051Y2863850D01*
X5092179Y2867913D01*
X5104625Y2867913D01*
X5112753Y2859786D01*
X5116817Y2847594D01*
X5116817Y2831084D01*
X5112753Y2818892D01*
X5104625Y2810763D01*
X5030965Y2894837D02*
G01*
X5116817Y2894837D01*
X5030965Y2894837D02*
G01*
X5030965Y2931668D01*
X5035029Y2944113D01*
X5039093Y2948178D01*
X5047221Y2952242D01*
X5059413Y2952242D01*
X5067795Y2948178D01*
X5071859Y2944113D01*
X5075923Y2931668D01*
X5075923Y2894837D01*
X5079987Y2979165D02*
G01*
X5079987Y3052826D01*
X5030965Y3079750D02*
G01*
X5116817Y3100323D01*
X5030965Y3120897D02*
G01*
X5116817Y3100323D01*
X5030965Y3120897D02*
G01*
X5116817Y3141218D01*
X5030965Y3161792D02*
G01*
X5116817Y3141218D01*
X5030965Y3188715D02*
G01*
X5116817Y3188715D01*
X5030965Y3188715D02*
G01*
X5030965Y3225545D01*
X5035029Y3237737D01*
X5039093Y3241802D01*
X5047221Y3245865D01*
X5055349Y3245865D01*
X5063731Y3241802D01*
X5067795Y3237737D01*
X5071859Y3225545D01*
X5071859Y3188715D01*
X5071859Y3217418D02*
G01*
X5116817Y3245865D01*
X5030965Y3297428D02*
G01*
X5035029Y3289300D01*
X5043157Y3281171D01*
X5051285Y3277107D01*
X5063731Y3273044D01*
X5084051Y3273044D01*
X5096243Y3277107D01*
X5104625Y3281171D01*
X5112753Y3289300D01*
X5116817Y3297428D01*
X5116817Y3313937D01*
X5112753Y3322065D01*
X5104625Y3330194D01*
X5096243Y3334257D01*
X5084051Y3338321D01*
X5063731Y3338321D01*
X5051285Y3334257D01*
X5043157Y3330194D01*
X5035029Y3322065D01*
X5030965Y3313937D01*
X5030965Y3297428D01*
X5030965Y3389884D02*
G01*
X5035029Y3381755D01*
X5043157Y3373628D01*
X5051285Y3369563D01*
X5063731Y3365500D01*
X5084051Y3365500D01*
X5096243Y3369563D01*
X5104625Y3373628D01*
X5112753Y3381755D01*
X5116817Y3389884D01*
X5116817Y3406394D01*
X5112753Y3414521D01*
X5104625Y3422650D01*
X5096243Y3426713D01*
X5084051Y3430778D01*
X5063731Y3430778D01*
X5051285Y3426713D01*
X5043157Y3422650D01*
X5035029Y3414521D01*
X5030965Y3406394D01*
X5030965Y3389884D01*
X5030965Y3457955D02*
G01*
X5116817Y3457955D01*
X5030965Y3457955D02*
G01*
X5116817Y3490468D01*
X5030965Y3523234D02*
G01*
X5116817Y3490468D01*
X5030965Y3523234D02*
G01*
X5116817Y3523234D01*
X5079987Y3550412D02*
G01*
X5079987Y3624071D01*
X5030965Y3659123D02*
G01*
X5030965Y3704081D01*
X5063731Y3679697D01*
X5063731Y3691889D01*
X5067795Y3700018D01*
X5071859Y3704081D01*
X5084051Y3708145D01*
X5092179Y3708145D01*
X5104625Y3704081D01*
X5112753Y3695954D01*
X5116817Y3683762D01*
X5116817Y3671315D01*
X5112753Y3659123D01*
X5108689Y3655060D01*
X5100561Y3650995D01*
X5051285Y3739387D02*
G01*
X5047221Y3739387D01*
X5039093Y3743452D01*
X5035029Y3747515D01*
X5030965Y3755644D01*
X5030965Y3772154D01*
X5035029Y3780281D01*
X5039093Y3784345D01*
X5047221Y3788410D01*
X5055349Y3788410D01*
X5063731Y3784345D01*
X5075923Y3776218D01*
X5116817Y3735323D01*
X5116817Y3792473D01*
X7425931Y2120900D02*
G01*
X7498829Y2120900D01*
X7425931Y2164587D02*
G01*
X7429487Y2157729D01*
X7436345Y2150618D01*
X7443457Y2147315D01*
X7453617Y2143760D01*
X7471143Y2143760D01*
X7481557Y2147315D01*
X7488415Y2150618D01*
X7495273Y2157729D01*
X7498829Y2164587D01*
X7498829Y2178304D01*
X7495273Y2185415D01*
X7488415Y2192273D01*
X7481557Y2195829D01*
X7471143Y2199131D01*
X7453617Y2199131D01*
X7443457Y2195829D01*
X7436345Y2192273D01*
X7429487Y2185415D01*
X7425931Y2178304D01*
X7425931Y2164587D01*
X7439901Y2221992D02*
G01*
X7436345Y2228850D01*
X7425931Y2239263D01*
X7498829Y2239263D01*
X7425931Y2269236D02*
G01*
X7425931Y2307336D01*
X7453617Y2286507D01*
X7453617Y2296921D01*
X7457173Y2303779D01*
X7460729Y2307336D01*
X7471143Y2310637D01*
X7478001Y2310637D01*
X7488415Y2307336D01*
X7495273Y2300223D01*
X7498829Y2289810D01*
X7498829Y2279650D01*
X7495273Y2269236D01*
X7491717Y2265679D01*
X7484859Y2262123D01*
X7189457Y2172970D02*
G01*
X7182345Y2169413D01*
X7175487Y2162555D01*
X7171931Y2155444D01*
X7171931Y2141728D01*
X7175487Y2134870D01*
X7182345Y2127757D01*
X7189457Y2124455D01*
X7199617Y2120900D01*
X7217143Y2120900D01*
X7227557Y2124455D01*
X7234415Y2127757D01*
X7241273Y2134870D01*
X7244829Y2141728D01*
X7244829Y2155444D01*
X7241273Y2162555D01*
X7234415Y2169413D01*
X7227557Y2172970D01*
X7217143Y2172970D01*
X7217143Y2155444D02*
G01*
X7217143Y2172970D01*
X7171931Y2195829D02*
G01*
X7244829Y2195829D01*
X7171931Y2195829D02*
G01*
X7244829Y2244089D01*
X7171931Y2244089D02*
G01*
X7244829Y2244089D01*
X7171931Y2266950D02*
G01*
X7244829Y2266950D01*
X7171931Y2266950D02*
G01*
X7171931Y2291334D01*
X7175487Y2301747D01*
X7182345Y2308605D01*
X7189457Y2312162D01*
X7199617Y2315463D01*
X7217143Y2315463D01*
X7227557Y2312162D01*
X7234415Y2308605D01*
X7241273Y2301747D01*
X7244829Y2291334D01*
X7244829Y2266950D01*
X6917931Y2120900D02*
G01*
X6990829Y2120900D01*
X6917931Y2164587D02*
G01*
X6921487Y2157729D01*
X6928345Y2150618D01*
X6935457Y2147315D01*
X6945617Y2143760D01*
X6963143Y2143760D01*
X6973557Y2147315D01*
X6980415Y2150618D01*
X6987273Y2157729D01*
X6990829Y2164587D01*
X6990829Y2178304D01*
X6987273Y2185415D01*
X6980415Y2192273D01*
X6973557Y2195829D01*
X6963143Y2199131D01*
X6945617Y2199131D01*
X6935457Y2195829D01*
X6928345Y2192273D01*
X6921487Y2185415D01*
X6917931Y2178304D01*
X6917931Y2164587D01*
X6931901Y2221992D02*
G01*
X6928345Y2228850D01*
X6917931Y2239263D01*
X6990829Y2239263D01*
X6935457Y2265679D02*
G01*
X6931901Y2265679D01*
X6925043Y2269236D01*
X6921487Y2272537D01*
X6917931Y2279650D01*
X6917931Y2293365D01*
X6921487Y2300223D01*
X6925043Y2303779D01*
X6931901Y2307336D01*
X6938759Y2307336D01*
X6945617Y2303779D01*
X6956031Y2296921D01*
X6990829Y2262123D01*
X6990829Y2310637D01*
X6663931Y2120900D02*
G01*
X6736829Y2120900D01*
X6663931Y2164587D02*
G01*
X6667487Y2157729D01*
X6674345Y2150618D01*
X6681457Y2147315D01*
X6691617Y2143760D01*
X6709143Y2143760D01*
X6719557Y2147315D01*
X6726415Y2150618D01*
X6733273Y2157729D01*
X6736829Y2164587D01*
X6736829Y2178304D01*
X6733273Y2185415D01*
X6726415Y2192273D01*
X6719557Y2195829D01*
X6709143Y2199131D01*
X6691617Y2199131D01*
X6681457Y2195829D01*
X6674345Y2192273D01*
X6667487Y2185415D01*
X6663931Y2178304D01*
X6663931Y2164587D01*
X6677901Y2221992D02*
G01*
X6674345Y2228850D01*
X6663931Y2239263D01*
X6736829Y2239263D01*
X6663931Y2296921D02*
G01*
X6712445Y2262123D01*
X6712445Y2314194D01*
X6663931Y2296921D02*
G01*
X6736829Y2296921D01*
X6409931Y2120900D02*
G01*
X6482829Y2120900D01*
X6409931Y2164587D02*
G01*
X6413487Y2157729D01*
X6420345Y2150618D01*
X6427457Y2147315D01*
X6437617Y2143760D01*
X6455143Y2143760D01*
X6465557Y2147315D01*
X6472415Y2150618D01*
X6479273Y2157729D01*
X6482829Y2164587D01*
X6482829Y2178304D01*
X6479273Y2185415D01*
X6472415Y2192273D01*
X6465557Y2195829D01*
X6455143Y2199131D01*
X6437617Y2199131D01*
X6427457Y2195829D01*
X6420345Y2192273D01*
X6413487Y2185415D01*
X6409931Y2178304D01*
X6409931Y2164587D01*
X6427457Y2225547D02*
G01*
X6423901Y2225547D01*
X6417043Y2228850D01*
X6413487Y2232405D01*
X6409931Y2239263D01*
X6409931Y2253234D01*
X6413487Y2260092D01*
X6417043Y2263647D01*
X6423901Y2266950D01*
X6430759Y2266950D01*
X6437617Y2263647D01*
X6448031Y2256789D01*
X6482829Y2221992D01*
X6482829Y2270505D01*
X6409931Y2341879D02*
G01*
X6482829Y2307336D01*
X6409931Y2293365D02*
G01*
X6409931Y2341879D01*
X6155931Y2120900D02*
G01*
X6228829Y2120900D01*
X6155931Y2164587D02*
G01*
X6159487Y2157729D01*
X6166345Y2150618D01*
X6173457Y2147315D01*
X6183617Y2143760D01*
X6201143Y2143760D01*
X6211557Y2147315D01*
X6218415Y2150618D01*
X6225273Y2157729D01*
X6228829Y2164587D01*
X6228829Y2178304D01*
X6225273Y2185415D01*
X6218415Y2192273D01*
X6211557Y2195829D01*
X6201143Y2199131D01*
X6183617Y2199131D01*
X6173457Y2195829D01*
X6166345Y2192273D01*
X6159487Y2185415D01*
X6155931Y2178304D01*
X6155931Y2164587D01*
X6173457Y2225547D02*
G01*
X6169901Y2225547D01*
X6163043Y2228850D01*
X6159487Y2232405D01*
X6155931Y2239263D01*
X6155931Y2253234D01*
X6159487Y2260092D01*
X6163043Y2263647D01*
X6169901Y2266950D01*
X6176759Y2266950D01*
X6183617Y2263647D01*
X6194031Y2256789D01*
X6228829Y2221992D01*
X6228829Y2270505D01*
X6166345Y2335021D02*
G01*
X6159487Y2331465D01*
X6155931Y2321052D01*
X6155931Y2314194D01*
X6159487Y2303779D01*
X6169901Y2296921D01*
X6187173Y2293365D01*
X6204445Y2293365D01*
X6218415Y2296921D01*
X6225273Y2303779D01*
X6228829Y2314194D01*
X6228829Y2317750D01*
X6225273Y2327910D01*
X6218415Y2335021D01*
X6208001Y2338323D01*
X6204445Y2338323D01*
X6194031Y2335021D01*
X6187173Y2327910D01*
X6183617Y2317750D01*
X6183617Y2314194D01*
X6187173Y2303779D01*
X6194031Y2296921D01*
X6204445Y2293365D01*
X5901931Y2120900D02*
G01*
X5974829Y2120900D01*
X5901931Y2164587D02*
G01*
X5905487Y2157729D01*
X5912345Y2150618D01*
X5919457Y2147315D01*
X5929617Y2143760D01*
X5947143Y2143760D01*
X5957557Y2147315D01*
X5964415Y2150618D01*
X5971273Y2157729D01*
X5974829Y2164587D01*
X5974829Y2178304D01*
X5971273Y2185415D01*
X5964415Y2192273D01*
X5957557Y2195829D01*
X5947143Y2199131D01*
X5929617Y2199131D01*
X5919457Y2195829D01*
X5912345Y2192273D01*
X5905487Y2185415D01*
X5901931Y2178304D01*
X5901931Y2164587D01*
X5919457Y2225547D02*
G01*
X5915901Y2225547D01*
X5909043Y2228850D01*
X5905487Y2232405D01*
X5901931Y2239263D01*
X5901931Y2253234D01*
X5905487Y2260092D01*
X5909043Y2263647D01*
X5915901Y2266950D01*
X5922759Y2266950D01*
X5929617Y2263647D01*
X5940031Y2256789D01*
X5974829Y2221992D01*
X5974829Y2270505D01*
X5901931Y2335021D02*
G01*
X5901931Y2300223D01*
X5933173Y2296921D01*
X5929617Y2300223D01*
X5926315Y2310637D01*
X5926315Y2321052D01*
X5929617Y2331465D01*
X5936729Y2338323D01*
X5947143Y2341879D01*
X5954001Y2341879D01*
X5964415Y2338323D01*
X5971273Y2331465D01*
X5974829Y2321052D01*
X5974829Y2310637D01*
X5971273Y2300223D01*
X5967717Y2296921D01*
X5960859Y2293365D01*
X5647931Y2120900D02*
G01*
X5720829Y2120900D01*
X5647931Y2164587D02*
G01*
X5651487Y2157729D01*
X5658345Y2150618D01*
X5665457Y2147315D01*
X5675617Y2143760D01*
X5693143Y2143760D01*
X5703557Y2147315D01*
X5710415Y2150618D01*
X5717273Y2157729D01*
X5720829Y2164587D01*
X5720829Y2178304D01*
X5717273Y2185415D01*
X5710415Y2192273D01*
X5703557Y2195829D01*
X5693143Y2199131D01*
X5675617Y2199131D01*
X5665457Y2195829D01*
X5658345Y2192273D01*
X5651487Y2185415D01*
X5647931Y2178304D01*
X5647931Y2164587D01*
X5647931Y2228850D02*
G01*
X5647931Y2266950D01*
X5675617Y2246376D01*
X5675617Y2256789D01*
X5679173Y2263647D01*
X5682729Y2266950D01*
X5693143Y2270505D01*
X5700001Y2270505D01*
X5710415Y2266950D01*
X5717273Y2260092D01*
X5720829Y2249678D01*
X5720829Y2239263D01*
X5717273Y2228850D01*
X5713717Y2225547D01*
X5706859Y2221992D01*
X5647931Y2300223D02*
G01*
X5647931Y2338323D01*
X5675617Y2317750D01*
X5675617Y2327910D01*
X5679173Y2335021D01*
X5682729Y2338323D01*
X5693143Y2341879D01*
X5700001Y2341879D01*
X5710415Y2338323D01*
X5717273Y2331465D01*
X5720829Y2321052D01*
X5720829Y2310637D01*
X5717273Y2300223D01*
X5713717Y2296921D01*
X5706859Y2293365D01*
X5393931Y2120900D02*
G01*
X5466829Y2120900D01*
X5393931Y2164587D02*
G01*
X5397487Y2157729D01*
X5404345Y2150618D01*
X5411457Y2147315D01*
X5421617Y2143760D01*
X5439143Y2143760D01*
X5449557Y2147315D01*
X5456415Y2150618D01*
X5463273Y2157729D01*
X5466829Y2164587D01*
X5466829Y2178304D01*
X5463273Y2185415D01*
X5456415Y2192273D01*
X5449557Y2195829D01*
X5439143Y2199131D01*
X5421617Y2199131D01*
X5411457Y2195829D01*
X5404345Y2192273D01*
X5397487Y2185415D01*
X5393931Y2178304D01*
X5393931Y2164587D01*
X5393931Y2228850D02*
G01*
X5393931Y2266950D01*
X5421617Y2246376D01*
X5421617Y2256789D01*
X5425173Y2263647D01*
X5428729Y2266950D01*
X5439143Y2270505D01*
X5446001Y2270505D01*
X5456415Y2266950D01*
X5463273Y2260092D01*
X5466829Y2249678D01*
X5466829Y2239263D01*
X5463273Y2228850D01*
X5459717Y2225547D01*
X5452859Y2221992D01*
X5411457Y2296921D02*
G01*
X5407901Y2296921D01*
X5401043Y2300223D01*
X5397487Y2303779D01*
X5393931Y2310637D01*
X5393931Y2324607D01*
X5397487Y2331465D01*
X5401043Y2335021D01*
X5407901Y2338323D01*
X5414759Y2338323D01*
X5421617Y2335021D01*
X5432031Y2327910D01*
X5466829Y2293365D01*
X5466829Y2341879D01*
X5139931Y2120900D02*
G01*
X5212829Y2120900D01*
X5139931Y2164587D02*
G01*
X5143487Y2157729D01*
X5150345Y2150618D01*
X5157457Y2147315D01*
X5167617Y2143760D01*
X5185143Y2143760D01*
X5195557Y2147315D01*
X5202415Y2150618D01*
X5209273Y2157729D01*
X5212829Y2164587D01*
X5212829Y2178304D01*
X5209273Y2185415D01*
X5202415Y2192273D01*
X5195557Y2195829D01*
X5185143Y2199131D01*
X5167617Y2199131D01*
X5157457Y2195829D01*
X5150345Y2192273D01*
X5143487Y2185415D01*
X5139931Y2178304D01*
X5139931Y2164587D01*
X5139931Y2228850D02*
G01*
X5139931Y2266950D01*
X5167617Y2246376D01*
X5167617Y2256789D01*
X5171173Y2263647D01*
X5174729Y2266950D01*
X5185143Y2270505D01*
X5192001Y2270505D01*
X5202415Y2266950D01*
X5209273Y2260092D01*
X5212829Y2249678D01*
X5212829Y2239263D01*
X5209273Y2228850D01*
X5205717Y2225547D01*
X5198859Y2221992D01*
X5139931Y2335021D02*
G01*
X5139931Y2300223D01*
X5171173Y2296921D01*
X5167617Y2300223D01*
X5164315Y2310637D01*
X5164315Y2321052D01*
X5167617Y2331465D01*
X5174729Y2338323D01*
X5185143Y2341879D01*
X5192001Y2341879D01*
X5202415Y2338323D01*
X5209273Y2331465D01*
X5212829Y2321052D01*
X5212829Y2310637D01*
X5209273Y2300223D01*
X5205717Y2296921D01*
X5198859Y2293365D01*
X4885931Y2120900D02*
G01*
X4958829Y2120900D01*
X4885931Y2164587D02*
G01*
X4889487Y2157729D01*
X4896345Y2150618D01*
X4903457Y2147315D01*
X4913617Y2143760D01*
X4931143Y2143760D01*
X4941557Y2147315D01*
X4948415Y2150618D01*
X4955273Y2157729D01*
X4958829Y2164587D01*
X4958829Y2178304D01*
X4955273Y2185415D01*
X4948415Y2192273D01*
X4941557Y2195829D01*
X4931143Y2199131D01*
X4913617Y2199131D01*
X4903457Y2195829D01*
X4896345Y2192273D01*
X4889487Y2185415D01*
X4885931Y2178304D01*
X4885931Y2164587D01*
X4885931Y2228850D02*
G01*
X4885931Y2266950D01*
X4913617Y2246376D01*
X4913617Y2256789D01*
X4917173Y2263647D01*
X4920729Y2266950D01*
X4931143Y2270505D01*
X4938001Y2270505D01*
X4948415Y2266950D01*
X4955273Y2260092D01*
X4958829Y2249678D01*
X4958829Y2239263D01*
X4955273Y2228850D01*
X4951717Y2225547D01*
X4944859Y2221992D01*
X4885931Y2327910D02*
G01*
X4934445Y2293365D01*
X4934445Y2345436D01*
X4885931Y2327910D02*
G01*
X4958829Y2327910D01*
X4642345Y2169413D02*
G01*
X4635487Y2162555D01*
X4631931Y2152142D01*
X4631931Y2138171D01*
X4635487Y2127757D01*
X4642345Y2120900D01*
X4649457Y2120900D01*
X4656315Y2124455D01*
X4659617Y2127757D01*
X4663173Y2134870D01*
X4670031Y2155444D01*
X4673587Y2162555D01*
X4677143Y2165857D01*
X4684001Y2169413D01*
X4694415Y2169413D01*
X4701273Y2162555D01*
X4704829Y2152142D01*
X4704829Y2138171D01*
X4701273Y2127757D01*
X4694415Y2120900D01*
X4631931Y2192273D02*
G01*
X4704829Y2219960D01*
X4631931Y2247645D02*
G01*
X4704829Y2219960D01*
X4631931Y2270505D02*
G01*
X4704829Y2270505D01*
X4631931Y2270505D02*
G01*
X4704829Y2319020D01*
X4631931Y2319020D02*
G01*
X4704829Y2319020D01*
X4388345Y2169413D02*
G01*
X4381487Y2162555D01*
X4377931Y2152142D01*
X4377931Y2138171D01*
X4381487Y2127757D01*
X4388345Y2120900D01*
X4395457Y2120900D01*
X4402315Y2124455D01*
X4405617Y2127757D01*
X4409173Y2134870D01*
X4416031Y2155444D01*
X4419587Y2162555D01*
X4423143Y2165857D01*
X4430001Y2169413D01*
X4440415Y2169413D01*
X4447273Y2162555D01*
X4450829Y2152142D01*
X4450829Y2138171D01*
X4447273Y2127757D01*
X4440415Y2120900D01*
X4377931Y2192273D02*
G01*
X4450829Y2219960D01*
X4377931Y2247645D02*
G01*
X4450829Y2219960D01*
X4377931Y2270505D02*
G01*
X4450829Y2270505D01*
X4377931Y2270505D02*
G01*
X4377931Y2301747D01*
X4381487Y2312162D01*
X4385043Y2315463D01*
X4391901Y2319020D01*
X4402315Y2319020D01*
X4409173Y2315463D01*
X4412729Y2312162D01*
X4416031Y2301747D01*
X4416031Y2270505D01*
X4885931Y4203700D02*
G01*
X4958829Y4203700D01*
X4885931Y4203700D02*
G01*
X4885931Y4234942D01*
X4889487Y4245355D01*
X4893043Y4248657D01*
X4899901Y4252213D01*
X4906759Y4252213D01*
X4913617Y4248657D01*
X4917173Y4245355D01*
X4920729Y4234942D01*
X4920729Y4203700D01*
X4920729Y4227829D02*
G01*
X4958829Y4252213D01*
X4885931Y4275073D02*
G01*
X4958829Y4323587D01*
X4885931Y4323587D02*
G01*
X4958829Y4275073D01*
X4885931Y4367276D02*
G01*
X4889487Y4356862D01*
X4899901Y4349750D01*
X4917173Y4346447D01*
X4927587Y4346447D01*
X4944859Y4349750D01*
X4955273Y4356862D01*
X4958829Y4367276D01*
X4958829Y4374134D01*
X4955273Y4384547D01*
X4944859Y4391405D01*
X4927587Y4394962D01*
X4917173Y4394962D01*
X4899901Y4391405D01*
X4889487Y4384547D01*
X4885931Y4374134D01*
X4885931Y4367276D01*
X7679931Y4203700D02*
G01*
X7752829Y4203700D01*
X7679931Y4247387D02*
G01*
X7683487Y4240529D01*
X7690345Y4233418D01*
X7697457Y4230115D01*
X7707617Y4226560D01*
X7725143Y4226560D01*
X7735557Y4230115D01*
X7742415Y4233418D01*
X7749273Y4240529D01*
X7752829Y4247387D01*
X7752829Y4261104D01*
X7749273Y4268215D01*
X7742415Y4275073D01*
X7735557Y4278629D01*
X7725143Y4281931D01*
X7707617Y4281931D01*
X7697457Y4278629D01*
X7690345Y4275073D01*
X7683487Y4268215D01*
X7679931Y4261104D01*
X7679931Y4247387D01*
X7693901Y4304792D02*
G01*
X7690345Y4311650D01*
X7679931Y4322063D01*
X7752829Y4322063D01*
X7679931Y4386579D02*
G01*
X7679931Y4352036D01*
X7711173Y4348479D01*
X7707617Y4352036D01*
X7704315Y4362450D01*
X7704315Y4372610D01*
X7707617Y4383023D01*
X7714729Y4390136D01*
X7725143Y4393437D01*
X7732001Y4393437D01*
X7742415Y4390136D01*
X7749273Y4383023D01*
X7752829Y4372610D01*
X7752829Y4362450D01*
X7749273Y4352036D01*
X7745717Y4348479D01*
X7738859Y4344923D01*
X7425931Y4254500D02*
G01*
X7498829Y4254500D01*
X7425931Y4298187D02*
G01*
X7429487Y4291329D01*
X7436345Y4284218D01*
X7443457Y4280915D01*
X7453617Y4277360D01*
X7471143Y4277360D01*
X7481557Y4280915D01*
X7488415Y4284218D01*
X7495273Y4291329D01*
X7498829Y4298187D01*
X7498829Y4311904D01*
X7495273Y4319015D01*
X7488415Y4325873D01*
X7481557Y4329429D01*
X7471143Y4332731D01*
X7453617Y4332731D01*
X7443457Y4329429D01*
X7436345Y4325873D01*
X7429487Y4319015D01*
X7425931Y4311904D01*
X7425931Y4298187D01*
X7443457Y4359147D02*
G01*
X7439901Y4359147D01*
X7433043Y4362450D01*
X7429487Y4366005D01*
X7425931Y4372863D01*
X7425931Y4386834D01*
X7429487Y4393692D01*
X7433043Y4397247D01*
X7439901Y4400550D01*
X7446759Y4400550D01*
X7453617Y4397247D01*
X7464031Y4390389D01*
X7498829Y4355592D01*
X7498829Y4404105D01*
X7171931Y4254500D02*
G01*
X7244829Y4254500D01*
X7171931Y4298187D02*
G01*
X7175487Y4291329D01*
X7182345Y4284218D01*
X7189457Y4280915D01*
X7199617Y4277360D01*
X7217143Y4277360D01*
X7227557Y4280915D01*
X7234415Y4284218D01*
X7241273Y4291329D01*
X7244829Y4298187D01*
X7244829Y4311904D01*
X7241273Y4319015D01*
X7234415Y4325873D01*
X7227557Y4329429D01*
X7217143Y4332731D01*
X7199617Y4332731D01*
X7189457Y4329429D01*
X7182345Y4325873D01*
X7175487Y4319015D01*
X7171931Y4311904D01*
X7171931Y4298187D01*
X7171931Y4376420D02*
G01*
X7175487Y4366005D01*
X7185901Y4359147D01*
X7203173Y4355592D01*
X7213587Y4355592D01*
X7230859Y4359147D01*
X7241273Y4366005D01*
X7244829Y4376420D01*
X7244829Y4383278D01*
X7241273Y4393692D01*
X7230859Y4400550D01*
X7213587Y4404105D01*
X7203173Y4404105D01*
X7185901Y4400550D01*
X7175487Y4393692D01*
X7171931Y4383278D01*
X7171931Y4376420D01*
X6917931Y4254500D02*
G01*
X6990829Y4254500D01*
X6917931Y4298187D02*
G01*
X6921487Y4291329D01*
X6928345Y4284218D01*
X6935457Y4280915D01*
X6945617Y4277360D01*
X6963143Y4277360D01*
X6973557Y4280915D01*
X6980415Y4284218D01*
X6987273Y4291329D01*
X6990829Y4298187D01*
X6990829Y4311904D01*
X6987273Y4319015D01*
X6980415Y4325873D01*
X6973557Y4329429D01*
X6963143Y4332731D01*
X6945617Y4332731D01*
X6935457Y4329429D01*
X6928345Y4325873D01*
X6921487Y4319015D01*
X6917931Y4311904D01*
X6917931Y4298187D01*
X6917931Y4390389D02*
G01*
X6966445Y4355592D01*
X6966445Y4407662D01*
X6917931Y4390389D02*
G01*
X6990829Y4390389D01*
X6663931Y4203700D02*
G01*
X6736829Y4203700D01*
X6663931Y4247387D02*
G01*
X6667487Y4240529D01*
X6674345Y4233418D01*
X6681457Y4230115D01*
X6691617Y4226560D01*
X6709143Y4226560D01*
X6719557Y4230115D01*
X6726415Y4233418D01*
X6733273Y4240529D01*
X6736829Y4247387D01*
X6736829Y4261104D01*
X6733273Y4268215D01*
X6726415Y4275073D01*
X6719557Y4278629D01*
X6709143Y4281931D01*
X6691617Y4281931D01*
X6681457Y4278629D01*
X6674345Y4275073D01*
X6667487Y4268215D01*
X6663931Y4261104D01*
X6663931Y4247387D01*
X6677901Y4304792D02*
G01*
X6674345Y4311650D01*
X6663931Y4322063D01*
X6736829Y4322063D01*
X6674345Y4386579D02*
G01*
X6667487Y4383023D01*
X6663931Y4372610D01*
X6663931Y4365752D01*
X6667487Y4355337D01*
X6677901Y4348479D01*
X6695173Y4344923D01*
X6712445Y4344923D01*
X6726415Y4348479D01*
X6733273Y4355337D01*
X6736829Y4365752D01*
X6736829Y4369307D01*
X6733273Y4379721D01*
X6726415Y4386579D01*
X6716001Y4390136D01*
X6712445Y4390136D01*
X6702031Y4386579D01*
X6695173Y4379721D01*
X6691617Y4369307D01*
X6691617Y4365752D01*
X6695173Y4355337D01*
X6702031Y4348479D01*
X6712445Y4344923D01*
X6409931Y4203700D02*
G01*
X6482829Y4203700D01*
X6409931Y4247387D02*
G01*
X6413487Y4240529D01*
X6420345Y4233418D01*
X6427457Y4230115D01*
X6437617Y4226560D01*
X6455143Y4226560D01*
X6465557Y4230115D01*
X6472415Y4233418D01*
X6479273Y4240529D01*
X6482829Y4247387D01*
X6482829Y4261104D01*
X6479273Y4268215D01*
X6472415Y4275073D01*
X6465557Y4278629D01*
X6455143Y4281931D01*
X6437617Y4281931D01*
X6427457Y4278629D01*
X6420345Y4275073D01*
X6413487Y4268215D01*
X6409931Y4261104D01*
X6409931Y4247387D01*
X6423901Y4304792D02*
G01*
X6420345Y4311650D01*
X6409931Y4322063D01*
X6482829Y4322063D01*
X6409931Y4393437D02*
G01*
X6482829Y4358894D01*
X6409931Y4344923D02*
G01*
X6409931Y4393437D01*
X6155931Y4254500D02*
G01*
X6228829Y4254500D01*
X6155931Y4298187D02*
G01*
X6159487Y4291329D01*
X6166345Y4284218D01*
X6173457Y4280915D01*
X6183617Y4277360D01*
X6201143Y4277360D01*
X6211557Y4280915D01*
X6218415Y4284218D01*
X6225273Y4291329D01*
X6228829Y4298187D01*
X6228829Y4311904D01*
X6225273Y4319015D01*
X6218415Y4325873D01*
X6211557Y4329429D01*
X6201143Y4332731D01*
X6183617Y4332731D01*
X6173457Y4329429D01*
X6166345Y4325873D01*
X6159487Y4319015D01*
X6155931Y4311904D01*
X6155931Y4298187D01*
X6155931Y4397247D02*
G01*
X6155931Y4362450D01*
X6187173Y4359147D01*
X6183617Y4362450D01*
X6180315Y4372863D01*
X6180315Y4383278D01*
X6183617Y4393692D01*
X6190729Y4400550D01*
X6201143Y4404105D01*
X6208001Y4404105D01*
X6218415Y4400550D01*
X6225273Y4393692D01*
X6228829Y4383278D01*
X6228829Y4372863D01*
X6225273Y4362450D01*
X6221717Y4359147D01*
X6214859Y4355592D01*
X5901931Y4203700D02*
G01*
X5974829Y4203700D01*
X5901931Y4247387D02*
G01*
X5905487Y4240529D01*
X5912345Y4233418D01*
X5919457Y4230115D01*
X5929617Y4226560D01*
X5947143Y4226560D01*
X5957557Y4230115D01*
X5964415Y4233418D01*
X5971273Y4240529D01*
X5974829Y4247387D01*
X5974829Y4261104D01*
X5971273Y4268215D01*
X5964415Y4275073D01*
X5957557Y4278629D01*
X5947143Y4281931D01*
X5929617Y4281931D01*
X5919457Y4278629D01*
X5912345Y4275073D01*
X5905487Y4268215D01*
X5901931Y4261104D01*
X5901931Y4247387D01*
X5915901Y4304792D02*
G01*
X5912345Y4311650D01*
X5901931Y4322063D01*
X5974829Y4322063D01*
X5901931Y4362450D02*
G01*
X5905487Y4352036D01*
X5912345Y4348479D01*
X5919457Y4348479D01*
X5926315Y4352036D01*
X5929617Y4358894D01*
X5933173Y4372610D01*
X5936729Y4383023D01*
X5943587Y4390136D01*
X5950445Y4393437D01*
X5960859Y4393437D01*
X5967717Y4390136D01*
X5971273Y4386579D01*
X5974829Y4376165D01*
X5974829Y4362450D01*
X5971273Y4352036D01*
X5967717Y4348479D01*
X5960859Y4344923D01*
X5950445Y4344923D01*
X5943587Y4348479D01*
X5936729Y4355337D01*
X5933173Y4365752D01*
X5929617Y4379721D01*
X5926315Y4386579D01*
X5919457Y4390136D01*
X5912345Y4390136D01*
X5905487Y4386579D01*
X5901931Y4376165D01*
X5901931Y4362450D01*
X5647931Y4203700D02*
G01*
X5720829Y4203700D01*
X5647931Y4247387D02*
G01*
X5651487Y4240529D01*
X5658345Y4233418D01*
X5665457Y4230115D01*
X5675617Y4226560D01*
X5693143Y4226560D01*
X5703557Y4230115D01*
X5710415Y4233418D01*
X5717273Y4240529D01*
X5720829Y4247387D01*
X5720829Y4261104D01*
X5717273Y4268215D01*
X5710415Y4275073D01*
X5703557Y4278629D01*
X5693143Y4281931D01*
X5675617Y4281931D01*
X5665457Y4278629D01*
X5658345Y4275073D01*
X5651487Y4268215D01*
X5647931Y4261104D01*
X5647931Y4247387D01*
X5661901Y4304792D02*
G01*
X5658345Y4311650D01*
X5647931Y4322063D01*
X5720829Y4322063D01*
X5672315Y4390136D02*
G01*
X5682729Y4386579D01*
X5689587Y4379721D01*
X5693143Y4369307D01*
X5693143Y4365752D01*
X5689587Y4355337D01*
X5682729Y4348479D01*
X5672315Y4344923D01*
X5668759Y4344923D01*
X5658345Y4348479D01*
X5651487Y4355337D01*
X5647931Y4365752D01*
X5647931Y4369307D01*
X5651487Y4379721D01*
X5658345Y4386579D01*
X5672315Y4390136D01*
X5689587Y4390136D01*
X5706859Y4386579D01*
X5717273Y4379721D01*
X5720829Y4369307D01*
X5720829Y4362450D01*
X5717273Y4352036D01*
X5710415Y4348479D01*
X5411457Y4255770D02*
G01*
X5404345Y4252213D01*
X5397487Y4245355D01*
X5393931Y4238244D01*
X5393931Y4224528D01*
X5397487Y4217670D01*
X5404345Y4210557D01*
X5411457Y4207255D01*
X5421617Y4203700D01*
X5439143Y4203700D01*
X5449557Y4207255D01*
X5456415Y4210557D01*
X5463273Y4217670D01*
X5466829Y4224528D01*
X5466829Y4238244D01*
X5463273Y4245355D01*
X5456415Y4252213D01*
X5449557Y4255770D01*
X5439143Y4255770D01*
X5439143Y4238244D02*
G01*
X5439143Y4255770D01*
X5393931Y4278629D02*
G01*
X5466829Y4278629D01*
X5393931Y4278629D02*
G01*
X5466829Y4326889D01*
X5393931Y4326889D02*
G01*
X5466829Y4326889D01*
X5393931Y4349750D02*
G01*
X5466829Y4349750D01*
X5393931Y4349750D02*
G01*
X5393931Y4374134D01*
X5397487Y4384547D01*
X5404345Y4391405D01*
X5411457Y4394962D01*
X5421617Y4398263D01*
X5439143Y4398263D01*
X5449557Y4394962D01*
X5456415Y4391405D01*
X5463273Y4384547D01*
X5466829Y4374134D01*
X5466829Y4349750D01*
X5139931Y4203700D02*
G01*
X5212829Y4203700D01*
X5139931Y4247387D02*
G01*
X5143487Y4240529D01*
X5150345Y4233418D01*
X5157457Y4230115D01*
X5167617Y4226560D01*
X5185143Y4226560D01*
X5195557Y4230115D01*
X5202415Y4233418D01*
X5209273Y4240529D01*
X5212829Y4247387D01*
X5212829Y4261104D01*
X5209273Y4268215D01*
X5202415Y4275073D01*
X5195557Y4278629D01*
X5185143Y4281931D01*
X5167617Y4281931D01*
X5157457Y4278629D01*
X5150345Y4275073D01*
X5143487Y4268215D01*
X5139931Y4261104D01*
X5139931Y4247387D01*
X5157457Y4308347D02*
G01*
X5153901Y4308347D01*
X5147043Y4311650D01*
X5143487Y4315205D01*
X5139931Y4322063D01*
X5139931Y4336034D01*
X5143487Y4342892D01*
X5147043Y4346447D01*
X5153901Y4349750D01*
X5160759Y4349750D01*
X5167617Y4346447D01*
X5178031Y4339589D01*
X5212829Y4304792D01*
X5212829Y4353305D01*
X5153901Y4376165D02*
G01*
X5150345Y4383023D01*
X5139931Y4393437D01*
X5212829Y4393437D01*
X4631931Y4227829D02*
G01*
X4704829Y4227829D01*
X4631931Y4203700D02*
G01*
X4631931Y4252213D01*
X4631931Y4275073D02*
G01*
X4704829Y4323587D01*
X4631931Y4323587D02*
G01*
X4704829Y4275073D01*
X4631931Y4367276D02*
G01*
X4635487Y4356862D01*
X4645901Y4349750D01*
X4663173Y4346447D01*
X4673587Y4346447D01*
X4690859Y4349750D01*
X4701273Y4356862D01*
X4704829Y4367276D01*
X4704829Y4374134D01*
X4701273Y4384547D01*
X4690859Y4391405D01*
X4673587Y4394962D01*
X4663173Y4394962D01*
X4645901Y4391405D01*
X4635487Y4384547D01*
X4631931Y4374134D01*
X4631931Y4367276D01*
X4377931Y4178300D02*
G01*
X4450829Y4178300D01*
X4377931Y4221987D02*
G01*
X4381487Y4215129D01*
X4388345Y4208018D01*
X4395457Y4204715D01*
X4405617Y4201160D01*
X4423143Y4201160D01*
X4433557Y4204715D01*
X4440415Y4208018D01*
X4447273Y4215129D01*
X4450829Y4221987D01*
X4450829Y4235704D01*
X4447273Y4242815D01*
X4440415Y4249673D01*
X4433557Y4253229D01*
X4423143Y4256531D01*
X4405617Y4256531D01*
X4395457Y4253229D01*
X4388345Y4249673D01*
X4381487Y4242815D01*
X4377931Y4235704D01*
X4377931Y4221987D01*
X4395457Y4282947D02*
G01*
X4391901Y4282947D01*
X4385043Y4286250D01*
X4381487Y4289805D01*
X4377931Y4296663D01*
X4377931Y4310634D01*
X4381487Y4317492D01*
X4385043Y4321047D01*
X4391901Y4324350D01*
X4398759Y4324350D01*
X4405617Y4321047D01*
X4416031Y4314189D01*
X4450829Y4279392D01*
X4450829Y4327905D01*
X4395457Y4354321D02*
G01*
X4391901Y4354321D01*
X4385043Y4357623D01*
X4381487Y4361179D01*
X4377931Y4368037D01*
X4377931Y4382007D01*
X4381487Y4388865D01*
X4385043Y4392421D01*
X4391901Y4395723D01*
X4398759Y4395723D01*
X4405617Y4392421D01*
X4416031Y4385310D01*
X4450829Y4350765D01*
X4450829Y4399279D01*
X4123931Y4178300D02*
G01*
X4196829Y4178300D01*
X4123931Y4221987D02*
G01*
X4127487Y4215129D01*
X4134345Y4208018D01*
X4141457Y4204715D01*
X4151617Y4201160D01*
X4169143Y4201160D01*
X4179557Y4204715D01*
X4186415Y4208018D01*
X4193273Y4215129D01*
X4196829Y4221987D01*
X4196829Y4235704D01*
X4193273Y4242815D01*
X4186415Y4249673D01*
X4179557Y4253229D01*
X4169143Y4256531D01*
X4151617Y4256531D01*
X4141457Y4253229D01*
X4134345Y4249673D01*
X4127487Y4242815D01*
X4123931Y4235704D01*
X4123931Y4221987D01*
X4141457Y4282947D02*
G01*
X4137901Y4282947D01*
X4131043Y4286250D01*
X4127487Y4289805D01*
X4123931Y4296663D01*
X4123931Y4310634D01*
X4127487Y4317492D01*
X4131043Y4321047D01*
X4137901Y4324350D01*
X4144759Y4324350D01*
X4151617Y4321047D01*
X4162031Y4314189D01*
X4196829Y4279392D01*
X4196829Y4327905D01*
X4123931Y4357623D02*
G01*
X4123931Y4395723D01*
X4151617Y4375150D01*
X4151617Y4385310D01*
X4155173Y4392421D01*
X4158729Y4395723D01*
X4169143Y4399279D01*
X4176001Y4399279D01*
X4186415Y4395723D01*
X4193273Y4388865D01*
X4196829Y4378452D01*
X4196829Y4368037D01*
X4193273Y4357623D01*
X4189717Y4354321D01*
X4182859Y4350765D01*
X4123931Y2120900D02*
G01*
X4196829Y2120900D01*
X4123931Y2120900D02*
G01*
X4123931Y2165857D01*
X4158729Y2120900D02*
G01*
X4158729Y2148586D01*
X4196829Y2120900D02*
G01*
X4196829Y2165857D01*
X4123931Y2188718D02*
G01*
X4196829Y2188718D01*
X4123931Y2188718D02*
G01*
X4196829Y2237231D01*
X4123931Y2237231D02*
G01*
X4196829Y2237231D01*
X7944345Y4277613D02*
G01*
X7937487Y4270755D01*
X7933931Y4260342D01*
X7933931Y4246371D01*
X7937487Y4235957D01*
X7944345Y4229100D01*
X7951457Y4229100D01*
X7958315Y4232655D01*
X7961617Y4235957D01*
X7965173Y4243070D01*
X7972031Y4263644D01*
X7975587Y4270755D01*
X7979143Y4274057D01*
X7986001Y4277613D01*
X7996415Y4277613D01*
X8003273Y4270755D01*
X8006829Y4260342D01*
X8006829Y4246371D01*
X8003273Y4235957D01*
X7996415Y4229100D01*
X7933931Y4300473D02*
G01*
X8006829Y4300473D01*
X7933931Y4300473D02*
G01*
X7933931Y4324604D01*
X7937487Y4335018D01*
X7944345Y4342129D01*
X7951457Y4345431D01*
X7961617Y4348987D01*
X7979143Y4348987D01*
X7989557Y4345431D01*
X7996415Y4342129D01*
X8003273Y4335018D01*
X8006829Y4324604D01*
X8006829Y4300473D01*
X7947901Y4371847D02*
G01*
X7944345Y4378705D01*
X7933931Y4389120D01*
X8006829Y4389120D01*
X8198345Y4277613D02*
G01*
X8191487Y4270755D01*
X8187931Y4260342D01*
X8187931Y4246371D01*
X8191487Y4235957D01*
X8198345Y4229100D01*
X8205457Y4229100D01*
X8212315Y4232655D01*
X8215617Y4235957D01*
X8219173Y4243070D01*
X8226031Y4263644D01*
X8229587Y4270755D01*
X8233143Y4274057D01*
X8240001Y4277613D01*
X8250415Y4277613D01*
X8257273Y4270755D01*
X8260829Y4260342D01*
X8260829Y4246371D01*
X8257273Y4235957D01*
X8250415Y4229100D01*
X8187931Y4300473D02*
G01*
X8260829Y4300473D01*
X8187931Y4300473D02*
G01*
X8187931Y4324604D01*
X8191487Y4335018D01*
X8198345Y4342129D01*
X8205457Y4345431D01*
X8215617Y4348987D01*
X8233143Y4348987D01*
X8243557Y4345431D01*
X8250415Y4342129D01*
X8257273Y4335018D01*
X8260829Y4324604D01*
X8260829Y4300473D01*
X8187931Y4392676D02*
G01*
X8191487Y4382262D01*
X8201901Y4375150D01*
X8219173Y4371847D01*
X8229587Y4371847D01*
X8246859Y4375150D01*
X8257273Y4382262D01*
X8260829Y4392676D01*
X8260829Y4399534D01*
X8257273Y4409947D01*
X8246859Y4416805D01*
X8229587Y4420362D01*
X8219173Y4420362D01*
X8201901Y4416805D01*
X8191487Y4409947D01*
X8187931Y4399534D01*
X8187931Y4392676D01*
X3887457Y4255770D02*
G01*
X3880345Y4252213D01*
X3873487Y4245355D01*
X3869931Y4238244D01*
X3869931Y4224528D01*
X3873487Y4217670D01*
X3880345Y4210557D01*
X3887457Y4207255D01*
X3897617Y4203700D01*
X3915143Y4203700D01*
X3925557Y4207255D01*
X3932415Y4210557D01*
X3939273Y4217670D01*
X3942829Y4224528D01*
X3942829Y4238244D01*
X3939273Y4245355D01*
X3932415Y4252213D01*
X3925557Y4255770D01*
X3915143Y4255770D01*
X3915143Y4238244D02*
G01*
X3915143Y4255770D01*
X3869931Y4278629D02*
G01*
X3942829Y4278629D01*
X3869931Y4278629D02*
G01*
X3942829Y4326889D01*
X3869931Y4326889D02*
G01*
X3942829Y4326889D01*
X3869931Y4349750D02*
G01*
X3942829Y4349750D01*
X3869931Y4349750D02*
G01*
X3869931Y4374134D01*
X3873487Y4384547D01*
X3880345Y4391405D01*
X3887457Y4394962D01*
X3897617Y4398263D01*
X3915143Y4398263D01*
X3925557Y4394962D01*
X3932415Y4391405D01*
X3939273Y4384547D01*
X3942829Y4374134D01*
X3942829Y4349750D01*
X3869931Y2127757D02*
G01*
X3869931Y2165857D01*
X3897617Y2145029D01*
X3897617Y2155444D01*
X3901173Y2162555D01*
X3904729Y2165857D01*
X3915143Y2169413D01*
X3922001Y2169413D01*
X3932415Y2165857D01*
X3939273Y2159000D01*
X3942829Y2148586D01*
X3942829Y2138171D01*
X3939273Y2127757D01*
X3935717Y2124455D01*
X3928859Y2120900D01*
X3869931Y2192273D02*
G01*
X3942829Y2219960D01*
X3869931Y2247645D02*
G01*
X3942829Y2219960D01*
X3869931Y2277363D02*
G01*
X3869931Y2315463D01*
X3897617Y2294889D01*
X3897617Y2305050D01*
X3901173Y2312162D01*
X3904729Y2315463D01*
X3915143Y2319020D01*
X3922001Y2319020D01*
X3932415Y2315463D01*
X3939273Y2308605D01*
X3942829Y2298192D01*
X3942829Y2287778D01*
X3939273Y2277363D01*
X3935717Y2274062D01*
X3928859Y2270505D01*
X7944345Y2169413D02*
G01*
X7937487Y2162555D01*
X7933931Y2152142D01*
X7933931Y2138171D01*
X7937487Y2127757D01*
X7944345Y2120900D01*
X7951457Y2120900D01*
X7958315Y2124455D01*
X7961617Y2127757D01*
X7965173Y2134870D01*
X7972031Y2155444D01*
X7975587Y2162555D01*
X7979143Y2165857D01*
X7986001Y2169413D01*
X7996415Y2169413D01*
X8003273Y2162555D01*
X8006829Y2152142D01*
X8006829Y2138171D01*
X8003273Y2127757D01*
X7996415Y2120900D01*
X7933931Y2192273D02*
G01*
X8006829Y2192273D01*
X7933931Y2192273D02*
G01*
X7933931Y2216404D01*
X7937487Y2226818D01*
X7944345Y2233929D01*
X7951457Y2237231D01*
X7961617Y2240787D01*
X7979143Y2240787D01*
X7989557Y2237231D01*
X7996415Y2233929D01*
X8003273Y2226818D01*
X8006829Y2216404D01*
X8006829Y2192273D01*
X7933931Y2270505D02*
G01*
X7933931Y2308605D01*
X7961617Y2287778D01*
X7961617Y2298192D01*
X7965173Y2305050D01*
X7968729Y2308605D01*
X7979143Y2312162D01*
X7986001Y2312162D01*
X7996415Y2308605D01*
X8003273Y2301747D01*
X8006829Y2291334D01*
X8006829Y2280920D01*
X8003273Y2270505D01*
X7999717Y2266950D01*
X7992859Y2263647D01*
X8205457Y2172970D02*
G01*
X8198345Y2169413D01*
X8191487Y2162555D01*
X8187931Y2155444D01*
X8187931Y2141728D01*
X8191487Y2134870D01*
X8198345Y2127757D01*
X8205457Y2124455D01*
X8215617Y2120900D01*
X8233143Y2120900D01*
X8243557Y2124455D01*
X8250415Y2127757D01*
X8257273Y2134870D01*
X8260829Y2141728D01*
X8260829Y2155444D01*
X8257273Y2162555D01*
X8250415Y2169413D01*
X8243557Y2172970D01*
X8187931Y2195829D02*
G01*
X8260829Y2195829D01*
X8187931Y2195829D02*
G01*
X8260829Y2223515D01*
X8187931Y2251202D02*
G01*
X8260829Y2223515D01*
X8187931Y2251202D02*
G01*
X8260829Y2251202D01*
X8187931Y2274062D02*
G01*
X8260829Y2274062D01*
X8187931Y2274062D02*
G01*
X8187931Y2298192D01*
X8191487Y2308605D01*
X8198345Y2315463D01*
X8205457Y2319020D01*
X8215617Y2322576D01*
X8233143Y2322576D01*
X8243557Y2319020D01*
X8250415Y2315463D01*
X8257273Y2308605D01*
X8260829Y2298192D01*
X8260829Y2274062D01*
X6928599Y2806700D02*
G01*
X7071855Y2806700D01*
X6928599Y2806700D02*
G01*
X7071855Y2902204D01*
X6928599Y2902204D02*
G01*
X7071855Y2902204D01*
X6976351Y2981197D02*
G01*
X6983209Y2967481D01*
X6996671Y2954020D01*
X7017245Y2947162D01*
X7030961Y2947162D01*
X7051281Y2954020D01*
X7064997Y2967481D01*
X7071855Y2981197D01*
X7071855Y3001771D01*
X7064997Y3015234D01*
X7051281Y3028950D01*
X7030961Y3035807D01*
X7017245Y3035807D01*
X6996671Y3028950D01*
X6983209Y3015234D01*
X6976351Y3001771D01*
X6976351Y2981197D01*
X6928599Y3162554D02*
G01*
X7071855Y3162554D01*
X6996671Y3162554D02*
G01*
X6983209Y3149092D01*
X6976351Y3135376D01*
X6976351Y3114802D01*
X6983209Y3101339D01*
X6996671Y3087623D01*
X7017245Y3080765D01*
X7030961Y3080765D01*
X7051281Y3087623D01*
X7064997Y3101339D01*
X7071855Y3114802D01*
X7071855Y3135376D01*
X7064997Y3149092D01*
X7051281Y3162554D01*
X7017245Y3207512D02*
G01*
X7017245Y3289300D01*
X7003529Y3289300D01*
X6989813Y3282695D01*
X6983209Y3275837D01*
X6976351Y3262121D01*
X6976351Y3241802D01*
X6983209Y3228086D01*
X6996671Y3214370D01*
X7017245Y3207512D01*
X7030961Y3207512D01*
X7051281Y3214370D01*
X7064997Y3228086D01*
X7071855Y3241802D01*
X7071855Y3262121D01*
X7064997Y3275837D01*
X7051281Y3289300D01*
X6928599Y3334512D02*
G01*
X7071855Y3334512D01*
X6928599Y3334512D02*
G01*
X7071855Y3388868D01*
X6928599Y3443478D02*
G01*
X7071855Y3388868D01*
X6928599Y3443478D02*
G01*
X7071855Y3443478D01*
X6962635Y3590797D02*
G01*
X6948919Y3583939D01*
X6935457Y3570223D01*
X6928599Y3556762D01*
X6928599Y3529329D01*
X6935457Y3515868D01*
X6948919Y3502152D01*
X6962635Y3495294D01*
X6983209Y3488436D01*
X7017245Y3488436D01*
X7037565Y3495294D01*
X7051281Y3502152D01*
X7064997Y3515868D01*
X7071855Y3529329D01*
X7071855Y3556762D01*
X7064997Y3570223D01*
X7051281Y3583939D01*
X7037565Y3590797D01*
X6928599Y3635755D02*
G01*
X7030961Y3635755D01*
X7051281Y3642613D01*
X7064997Y3656329D01*
X7071855Y3676650D01*
X7071855Y3690365D01*
X7064997Y3710686D01*
X7051281Y3724402D01*
X7030961Y3731260D01*
X6928599Y3731260D01*
X7180059Y2911602D02*
G01*
X7323315Y2911602D01*
X7180059Y2911602D02*
G01*
X7180059Y3000247D01*
X7248385Y2911602D02*
G01*
X7248385Y2966212D01*
X7323315Y2911602D02*
G01*
X7323315Y3000247D01*
X7200633Y3140710D02*
G01*
X7186917Y3127247D01*
X7180059Y3106673D01*
X7180059Y3079495D01*
X7186917Y3058921D01*
X7200633Y3045460D01*
X7214349Y3045460D01*
X7227811Y3052063D01*
X7234669Y3058921D01*
X7241527Y3072637D01*
X7255243Y3113531D01*
X7262101Y3127247D01*
X7268705Y3133852D01*
X7282421Y3140710D01*
X7302995Y3140710D01*
X7316457Y3127247D01*
X7323315Y3106673D01*
X7323315Y3079495D01*
X7316457Y3058921D01*
X7302995Y3045460D01*
X7180059Y3185668D02*
G01*
X7323315Y3185668D01*
X7180059Y3185668D02*
G01*
X7180059Y3247136D01*
X7186917Y3267710D01*
X7193775Y3274313D01*
X7207491Y3281171D01*
X7227811Y3281171D01*
X7241527Y3274313D01*
X7248385Y3267710D01*
X7255243Y3247136D01*
X7255243Y3185668D01*
X7180059Y3339845D02*
G01*
X7180059Y3414776D01*
X7234669Y3373881D01*
X7234669Y3394455D01*
X7241527Y3408171D01*
X7248385Y3414776D01*
X7268705Y3421634D01*
X7282421Y3421634D01*
X7302995Y3414776D01*
X7316457Y3401313D01*
X7323315Y3380739D01*
X7323315Y3360420D01*
X7316457Y3339845D01*
X7309599Y3332987D01*
X7296137Y3326129D01*
X7214349Y3473450D02*
G01*
X7207491Y3473450D01*
X7193775Y3480307D01*
X7186917Y3487165D01*
X7180059Y3500881D01*
X7180059Y3528060D01*
X7186917Y3541776D01*
X7193775Y3548634D01*
X7207491Y3555237D01*
X7220953Y3555237D01*
X7234669Y3548634D01*
X7255243Y3534918D01*
X7323315Y3466592D01*
X7323315Y3562095D01*
X7200633Y3702557D02*
G01*
X7186917Y3689095D01*
X7180059Y3668521D01*
X7180059Y3641344D01*
X7186917Y3620770D01*
X7200633Y3607054D01*
X7214349Y3607054D01*
X7227811Y3613912D01*
X7234669Y3620770D01*
X7241527Y3634486D01*
X7255243Y3675379D01*
X7262101Y3689095D01*
X7268705Y3695700D01*
X7282421Y3702557D01*
X7302995Y3702557D01*
X7316457Y3689095D01*
X7323315Y3668521D01*
X7323315Y3641344D01*
X7316457Y3620770D01*
X7302995Y3607054D01*
X8459457Y4281170D02*
G01*
X8452345Y4277613D01*
X8445487Y4270755D01*
X8441931Y4263644D01*
X8441931Y4249928D01*
X8445487Y4243070D01*
X8452345Y4235957D01*
X8459457Y4232655D01*
X8469617Y4229100D01*
X8487143Y4229100D01*
X8497557Y4232655D01*
X8504415Y4235957D01*
X8511273Y4243070D01*
X8514829Y4249928D01*
X8514829Y4263644D01*
X8511273Y4270755D01*
X8504415Y4277613D01*
X8497557Y4281170D01*
X8441931Y4304029D02*
G01*
X8514829Y4304029D01*
X8514829Y4304029D02*
G01*
X8514829Y4345431D01*
X8441931Y4368292D02*
G01*
X8514829Y4368292D01*
X8441931Y4416805D02*
G01*
X8490445Y4368292D01*
X8473173Y4385563D02*
G01*
X8514829Y4416805D01*
X8441931Y2162555D02*
G01*
X8441931Y2127757D01*
X8473173Y2124455D01*
X8469617Y2127757D01*
X8466315Y2138171D01*
X8466315Y2148586D01*
X8469617Y2159000D01*
X8476729Y2165857D01*
X8487143Y2169413D01*
X8494001Y2169413D01*
X8504415Y2165857D01*
X8511273Y2159000D01*
X8514829Y2148586D01*
X8514829Y2138171D01*
X8511273Y2127757D01*
X8507717Y2124455D01*
X8500859Y2120900D01*
X8441931Y2192273D02*
G01*
X8514829Y2219960D01*
X8441931Y2247645D02*
G01*
X8514829Y2219960D01*
D10*
X6007100Y1296415D02*
G01*
X6007100Y1218437D01*
X6012179Y1202944D01*
X6022593Y1192529D01*
X6038341Y1187450D01*
X6048756Y1187450D01*
X6064250Y1192529D01*
X6074663Y1202944D01*
X6079743Y1218437D01*
X6079743Y1296415D01*
X6119368Y1270507D02*
G01*
X6119368Y1275587D01*
X6124447Y1286002D01*
X6129781Y1291336D01*
X6140195Y1296415D01*
X6160770Y1296415D01*
X6171184Y1291336D01*
X6176518Y1286002D01*
X6181597Y1275587D01*
X6181597Y1265173D01*
X6176518Y1254760D01*
X6166104Y1239265D01*
X6114034Y1187450D01*
X6186931Y1187450D01*
D11*
X5029200Y-1578355D02*
G01*
X5029200Y-2055621D01*
X5029200Y-2055621D02*
G01*
X5301995Y-2055621D01*
X5474715Y-1691894D02*
G01*
X5474715Y-1669287D01*
X5497322Y-1623821D01*
X5520181Y-1600962D01*
X5565647Y-1578355D01*
X5656579Y-1578355D01*
X5702045Y-1600962D01*
X5724652Y-1623821D01*
X5747258Y-1669287D01*
X5747258Y-1714500D01*
X5724652Y-1759965D01*
X5679186Y-1828292D01*
X5451856Y-2055621D01*
X5770118Y-2055621D01*
X6215634Y-1737360D02*
G01*
X6192774Y-1805431D01*
X6147308Y-1850897D01*
X6079236Y-1873757D01*
X6056375Y-1873757D01*
X5988304Y-1850897D01*
X5942838Y-1805431D01*
X5920231Y-1737360D01*
X5920231Y-1714500D01*
X5942838Y-1646428D01*
X5988304Y-1600962D01*
X6056375Y-1578355D01*
X6079236Y-1578355D01*
X6147308Y-1600962D01*
X6192774Y-1646428D01*
X6215634Y-1737360D01*
X6215634Y-1850897D01*
X6192774Y-1964689D01*
X6147308Y-2032762D01*
X6079236Y-2055621D01*
X6033770Y-2055621D01*
X5965443Y-2032762D01*
X5942838Y-1987295D01*
X6479286Y-1578355D02*
G01*
X6410959Y-1600962D01*
X6388354Y-1646428D01*
X6388354Y-1691894D01*
X6410959Y-1737360D01*
X6456425Y-1759965D01*
X6547358Y-1782826D01*
X6615684Y-1805431D01*
X6660895Y-1850897D01*
X6683756Y-1896363D01*
X6683756Y-1964689D01*
X6660895Y-2010155D01*
X6638290Y-2032762D01*
X6570218Y-2055621D01*
X6479286Y-2055621D01*
X6410959Y-2032762D01*
X6388354Y-2010155D01*
X6365493Y-1964689D01*
X6365493Y-1896363D01*
X6388354Y-1850897D01*
X6433820Y-1805431D01*
X6501891Y-1782826D01*
X6592824Y-1759965D01*
X6638290Y-1737360D01*
X6660895Y-1691894D01*
X6660895Y-1646428D01*
X6638290Y-1600962D01*
X6570218Y-1578355D01*
X6479286Y-1578355D01*
X6833870Y-1578355D02*
G01*
X6833870Y-2055621D01*
X6833870Y-1578355D02*
G01*
X7151877Y-2055621D01*
X7151877Y-1578355D02*
G01*
X7151877Y-2055621D01*
X7253477Y-508762D02*
G01*
X7244588Y-513334D01*
X7235443Y-522223D01*
X7230872Y-531368D01*
X7226300Y-545084D01*
X7226300Y-567689D01*
X7230872Y-581405D01*
X7235443Y-590550D01*
X7244588Y-599694D01*
X7253477Y-604265D01*
X7271765Y-604265D01*
X7280909Y-599694D01*
X7290054Y-590550D01*
X7294372Y-581405D01*
X7298943Y-567689D01*
X7298943Y-545084D01*
X7294372Y-531368D01*
X7290054Y-522223D01*
X7280909Y-513334D01*
X7271765Y-508762D01*
X7253477Y-508762D01*
X7328915Y-508762D02*
G01*
X7328915Y-576834D01*
X7333488Y-590550D01*
X7342631Y-599694D01*
X7356347Y-604265D01*
X7365491Y-604265D01*
X7378954Y-599694D01*
X7388097Y-590550D01*
X7392670Y-576834D01*
X7392670Y-508762D01*
X7454391Y-508762D02*
G01*
X7454391Y-604265D01*
X7422641Y-508762D02*
G01*
X7486395Y-508762D01*
X7516368Y-526795D02*
G01*
X7525511Y-522223D01*
X7538974Y-508762D01*
X7538974Y-604265D01*
X7228077Y-13462D02*
G01*
X7219188Y-18034D01*
X7210043Y-26923D01*
X7205472Y-36068D01*
X7200900Y-49784D01*
X7200900Y-72389D01*
X7205472Y-86105D01*
X7210043Y-95250D01*
X7219188Y-104394D01*
X7228077Y-108965D01*
X7246365Y-108965D01*
X7255509Y-104394D01*
X7264654Y-95250D01*
X7268972Y-86105D01*
X7273543Y-72389D01*
X7273543Y-49784D01*
X7268972Y-36068D01*
X7264654Y-26923D01*
X7255509Y-18034D01*
X7246365Y-13462D01*
X7228077Y-13462D01*
X7303515Y-13462D02*
G01*
X7303515Y-81534D01*
X7308088Y-95250D01*
X7317231Y-104394D01*
X7330947Y-108965D01*
X7340091Y-108965D01*
X7353554Y-104394D01*
X7362697Y-95250D01*
X7367270Y-81534D01*
X7367270Y-13462D01*
X7428991Y-13462D02*
G01*
X7428991Y-108965D01*
X7397241Y-13462D02*
G01*
X7460995Y-13462D01*
X7495540Y-36068D02*
G01*
X7495540Y-31495D01*
X7500111Y-22605D01*
X7504429Y-18034D01*
X7513574Y-13462D01*
X7531861Y-13462D01*
X7541006Y-18034D01*
X7545324Y-22605D01*
X7549895Y-31495D01*
X7549895Y-40639D01*
X7545324Y-49784D01*
X7536434Y-63500D01*
X7490968Y-108965D01*
X7554468Y-108965D01*
X4522977Y-13462D02*
G01*
X4514088Y-18034D01*
X4504943Y-26923D01*
X4500372Y-36068D01*
X4495800Y-49784D01*
X4495800Y-72389D01*
X4500372Y-86105D01*
X4504943Y-95250D01*
X4514088Y-104394D01*
X4522977Y-108965D01*
X4541265Y-108965D01*
X4550409Y-104394D01*
X4559554Y-95250D01*
X4563872Y-86105D01*
X4568443Y-72389D01*
X4568443Y-49784D01*
X4563872Y-36068D01*
X4559554Y-26923D01*
X4550409Y-18034D01*
X4541265Y-13462D01*
X4522977Y-13462D01*
X4598415Y-13462D02*
G01*
X4598415Y-81534D01*
X4602988Y-95250D01*
X4612131Y-104394D01*
X4625847Y-108965D01*
X4634991Y-108965D01*
X4648454Y-104394D01*
X4657597Y-95250D01*
X4662170Y-81534D01*
X4662170Y-13462D01*
X4723891Y-13462D02*
G01*
X4723891Y-108965D01*
X4692141Y-13462D02*
G01*
X4755895Y-13462D01*
X4795011Y-13462D02*
G01*
X4844795Y-13462D01*
X4817618Y-49784D01*
X4831334Y-49784D01*
X4840224Y-54355D01*
X4844795Y-58928D01*
X4849368Y-72389D01*
X4849368Y-81534D01*
X4844795Y-95250D01*
X4835906Y-104394D01*
X4822190Y-108965D01*
X4808474Y-108965D01*
X4795011Y-104394D01*
X4790440Y-99821D01*
X4785868Y-90678D01*
X4522977Y-508762D02*
G01*
X4514088Y-513334D01*
X4504943Y-522223D01*
X4500372Y-531368D01*
X4495800Y-545084D01*
X4495800Y-567689D01*
X4500372Y-581405D01*
X4504943Y-590550D01*
X4514088Y-599694D01*
X4522977Y-604265D01*
X4541265Y-604265D01*
X4550409Y-599694D01*
X4559554Y-590550D01*
X4563872Y-581405D01*
X4568443Y-567689D01*
X4568443Y-545084D01*
X4563872Y-531368D01*
X4559554Y-522223D01*
X4550409Y-513334D01*
X4541265Y-508762D01*
X4522977Y-508762D01*
X4598415Y-508762D02*
G01*
X4598415Y-576834D01*
X4602988Y-590550D01*
X4612131Y-599694D01*
X4625847Y-604265D01*
X4634991Y-604265D01*
X4648454Y-599694D01*
X4657597Y-590550D01*
X4662170Y-576834D01*
X4662170Y-508762D01*
X4723891Y-508762D02*
G01*
X4723891Y-604265D01*
X4692141Y-508762D02*
G01*
X4755895Y-508762D01*
X4831334Y-508762D02*
G01*
X4785868Y-572262D01*
X4853940Y-572262D01*
X4831334Y-508762D02*
G01*
X4831334Y-604265D01*
X7227824Y244094D02*
G01*
X7309865Y244094D01*
X7268718Y203200D02*
G01*
X7268718Y284987D01*
X7232395Y314960D02*
G01*
X7227824Y324104D01*
X7214361Y337820D01*
X7309865Y337820D01*
X7236968Y372363D02*
G01*
X7232395Y372363D01*
X7223506Y376936D01*
X7218934Y381507D01*
X7214361Y390397D01*
X7214361Y408686D01*
X7218934Y417829D01*
X7223506Y422402D01*
X7232395Y426720D01*
X7241540Y426720D01*
X7250684Y422402D01*
X7264400Y413257D01*
X7309865Y367792D01*
X7309865Y431292D01*
X7214361Y461263D02*
G01*
X7309865Y497839D01*
X7214361Y534162D02*
G01*
X7309865Y497839D01*
X6741668Y271271D02*
G01*
X6732524Y266954D01*
X6723634Y257810D01*
X6719061Y248665D01*
X6719061Y230378D01*
X6723634Y221487D01*
X6732524Y212344D01*
X6741668Y207771D01*
X6755384Y203200D01*
X6777990Y203200D01*
X6791706Y207771D01*
X6800850Y212344D01*
X6809993Y221487D01*
X6814565Y230378D01*
X6814565Y248665D01*
X6809993Y257810D01*
X6800850Y266954D01*
X6791706Y271271D01*
X6777990Y271271D01*
X6777990Y248665D02*
G01*
X6777990Y271271D01*
X6719061Y301497D02*
G01*
X6814565Y301497D01*
X6719061Y301497D02*
G01*
X6814565Y364997D01*
X6719061Y364997D02*
G01*
X6814565Y364997D01*
X6719061Y394970D02*
G01*
X6814565Y394970D01*
X6719061Y394970D02*
G01*
X6719061Y426720D01*
X6723634Y440436D01*
X6732524Y449579D01*
X6741668Y454152D01*
X6755384Y458723D01*
X6777990Y458723D01*
X6791706Y454152D01*
X6800850Y449579D01*
X6809993Y440436D01*
X6814565Y426720D01*
X6814565Y394970D01*
X6224524Y244094D02*
G01*
X6306565Y244094D01*
X6265418Y203200D02*
G01*
X6265418Y284987D01*
X6211061Y369570D02*
G01*
X6211061Y324104D01*
X6251956Y319531D01*
X6247384Y324104D01*
X6242811Y337820D01*
X6242811Y351281D01*
X6247384Y364997D01*
X6256527Y374142D01*
X6269990Y378713D01*
X6279134Y378713D01*
X6292850Y374142D01*
X6301993Y364997D01*
X6306565Y351281D01*
X6306565Y337820D01*
X6301993Y324104D01*
X6297422Y319531D01*
X6288277Y314960D01*
X6211061Y408686D02*
G01*
X6306565Y445007D01*
X6211061Y481329D02*
G01*
X6306565Y445007D01*
X5741161Y431800D02*
G01*
X5836665Y431800D01*
X5741161Y431800D02*
G01*
X5741161Y490981D01*
X5786627Y431800D02*
G01*
X5786627Y468121D01*
X5836665Y431800D02*
G01*
X5836665Y490981D01*
X5741161Y520954D02*
G01*
X5836665Y520954D01*
X5741161Y520954D02*
G01*
X5836665Y584454D01*
X5741161Y584454D02*
G01*
X5836665Y584454D01*
X5741161Y651002D02*
G01*
X5836665Y614426D01*
X5741161Y651002D02*
G01*
X5836665Y687323D01*
X5804661Y628142D02*
G01*
X5804661Y673607D01*
X5499861Y431800D02*
G01*
X5595365Y431800D01*
X5499861Y461771D02*
G01*
X5595365Y461771D01*
X5499861Y461771D02*
G01*
X5595365Y525526D01*
X5499861Y525526D02*
G01*
X5595365Y525526D01*
X5517895Y555497D02*
G01*
X5513324Y564642D01*
X5499861Y578104D01*
X5595365Y578104D01*
X5233161Y431800D02*
G01*
X5328665Y431800D01*
X5233161Y461771D02*
G01*
X5328665Y461771D01*
X5233161Y461771D02*
G01*
X5328665Y525526D01*
X5233161Y525526D02*
G01*
X5328665Y525526D01*
X5255768Y560070D02*
G01*
X5251195Y560070D01*
X5242306Y564642D01*
X5237734Y568960D01*
X5233161Y578104D01*
X5233161Y596392D01*
X5237734Y605536D01*
X5242306Y610107D01*
X5251195Y614426D01*
X5260340Y614426D01*
X5269484Y610107D01*
X5283200Y600963D01*
X5328665Y555497D01*
X5328665Y618997D01*
X4991861Y444500D02*
G01*
X5087365Y444500D01*
X4991861Y474471D02*
G01*
X5087365Y474471D01*
X4991861Y474471D02*
G01*
X5087365Y538226D01*
X4991861Y538226D02*
G01*
X5087365Y538226D01*
X4991861Y577342D02*
G01*
X4991861Y627126D01*
X5028184Y599947D01*
X5028184Y613663D01*
X5032756Y622807D01*
X5037327Y627126D01*
X5050790Y631697D01*
X5059934Y631697D01*
X5073650Y627126D01*
X5082793Y618236D01*
X5087365Y604520D01*
X5087365Y590804D01*
X5082793Y577342D01*
X5078222Y572770D01*
X5069077Y568197D01*
X4750561Y444500D02*
G01*
X4846065Y444500D01*
X4750561Y474471D02*
G01*
X4846065Y474471D01*
X4750561Y474471D02*
G01*
X4846065Y538226D01*
X4750561Y538226D02*
G01*
X4846065Y538226D01*
X4750561Y613663D02*
G01*
X4814061Y568197D01*
X4814061Y636270D01*
X4750561Y613663D02*
G01*
X4846065Y613663D01*
X4496561Y444500D02*
G01*
X4592065Y444500D01*
X4496561Y444500D02*
G01*
X4496561Y503681D01*
X4542027Y444500D02*
G01*
X4542027Y480821D01*
X4592065Y444500D02*
G01*
X4592065Y503681D01*
X4496561Y533654D02*
G01*
X4592065Y533654D01*
X4496561Y533654D02*
G01*
X4592065Y597154D01*
X4496561Y597154D02*
G01*
X4592065Y597154D01*
X4496561Y627126D02*
G01*
X4592065Y627126D01*
X4496561Y627126D02*
G01*
X4496561Y668020D01*
X4501134Y681736D01*
X4505706Y686307D01*
X4514595Y690879D01*
X4523740Y690879D01*
X4532884Y686307D01*
X4537456Y681736D01*
X4542027Y668020D01*
X4542027Y627126D02*
G01*
X4542027Y668020D01*
X4546600Y681736D01*
X4550918Y686307D01*
X4560061Y690879D01*
X4573777Y690879D01*
X4582922Y686307D01*
X4587493Y681736D01*
X4592065Y668020D01*
X4592065Y627126D01*
D10*
X11341100Y5754115D02*
G01*
X11341100Y5676137D01*
X11346179Y5660644D01*
X11356593Y5650229D01*
X11372341Y5645150D01*
X11382756Y5645150D01*
X11398250Y5650229D01*
X11408663Y5660644D01*
X11413743Y5676137D01*
X11413743Y5754115D01*
X11458447Y5754115D02*
G01*
X11515597Y5754115D01*
X11484609Y5712460D01*
X11500104Y5712460D01*
X11510518Y5707379D01*
X11515597Y5702300D01*
X11520931Y5686552D01*
X11520931Y5676137D01*
X11515597Y5660644D01*
X11505184Y5650229D01*
X11489690Y5645150D01*
X11474195Y5645150D01*
X11458447Y5650229D01*
X11453368Y5655310D01*
X11448034Y5665723D01*
D11*
X10363200Y2879344D02*
G01*
X10363200Y2402078D01*
X10363200Y2402078D02*
G01*
X10635995Y2402078D01*
X10808715Y2765805D02*
G01*
X10808715Y2788412D01*
X10831322Y2833878D01*
X10854181Y2856737D01*
X10899647Y2879344D01*
X10990579Y2879344D01*
X11036045Y2856737D01*
X11058652Y2833878D01*
X11081258Y2788412D01*
X11081258Y2743200D01*
X11058652Y2697734D01*
X11013186Y2629407D01*
X10785856Y2402078D01*
X11104118Y2402078D01*
X11549634Y2720339D02*
G01*
X11526774Y2652268D01*
X11481308Y2606802D01*
X11413236Y2583942D01*
X11390375Y2583942D01*
X11322304Y2606802D01*
X11276838Y2652268D01*
X11254231Y2720339D01*
X11254231Y2743200D01*
X11276838Y2811271D01*
X11322304Y2856737D01*
X11390375Y2879344D01*
X11413236Y2879344D01*
X11481308Y2856737D01*
X11526774Y2811271D01*
X11549634Y2720339D01*
X11549634Y2606802D01*
X11526774Y2493010D01*
X11481308Y2424937D01*
X11413236Y2402078D01*
X11367770Y2402078D01*
X11299443Y2424937D01*
X11276838Y2470404D01*
X11813286Y2879344D02*
G01*
X11744959Y2856737D01*
X11722354Y2811271D01*
X11722354Y2765805D01*
X11744959Y2720339D01*
X11790425Y2697734D01*
X11881358Y2674873D01*
X11949684Y2652268D01*
X11994895Y2606802D01*
X12017756Y2561336D01*
X12017756Y2493010D01*
X11994895Y2447544D01*
X11972290Y2424937D01*
X11904218Y2402078D01*
X11813286Y2402078D01*
X11744959Y2424937D01*
X11722354Y2447544D01*
X11699493Y2493010D01*
X11699493Y2561336D01*
X11722354Y2606802D01*
X11767820Y2652268D01*
X11835891Y2674873D01*
X11926824Y2697734D01*
X11972290Y2720339D01*
X11994895Y2765805D01*
X11994895Y2811271D01*
X11972290Y2856737D01*
X11904218Y2879344D01*
X11813286Y2879344D01*
X12167870Y2879344D02*
G01*
X12167870Y2402078D01*
X12167870Y2879344D02*
G01*
X12485877Y2402078D01*
X12485877Y2879344D02*
G01*
X12485877Y2402078D01*
X12587477Y3948937D02*
G01*
X12578588Y3944365D01*
X12569443Y3935476D01*
X12564872Y3926331D01*
X12560300Y3912615D01*
X12560300Y3890010D01*
X12564872Y3876294D01*
X12569443Y3867150D01*
X12578588Y3858005D01*
X12587477Y3853434D01*
X12605765Y3853434D01*
X12614909Y3858005D01*
X12624054Y3867150D01*
X12628372Y3876294D01*
X12632943Y3890010D01*
X12632943Y3912615D01*
X12628372Y3926331D01*
X12624054Y3935476D01*
X12614909Y3944365D01*
X12605765Y3948937D01*
X12587477Y3948937D01*
X12662915Y3948937D02*
G01*
X12662915Y3880865D01*
X12667488Y3867150D01*
X12676631Y3858005D01*
X12690347Y3853434D01*
X12699491Y3853434D01*
X12712954Y3858005D01*
X12722097Y3867150D01*
X12726670Y3880865D01*
X12726670Y3948937D01*
X12788391Y3948937D02*
G01*
X12788391Y3853434D01*
X12756641Y3948937D02*
G01*
X12820395Y3948937D01*
X12850368Y3930904D02*
G01*
X12859511Y3935476D01*
X12872974Y3948937D01*
X12872974Y3853434D01*
X12562077Y4444237D02*
G01*
X12553188Y4439665D01*
X12544043Y4430776D01*
X12539472Y4421631D01*
X12534900Y4407915D01*
X12534900Y4385310D01*
X12539472Y4371594D01*
X12544043Y4362450D01*
X12553188Y4353305D01*
X12562077Y4348734D01*
X12580365Y4348734D01*
X12589509Y4353305D01*
X12598654Y4362450D01*
X12602972Y4371594D01*
X12607543Y4385310D01*
X12607543Y4407915D01*
X12602972Y4421631D01*
X12598654Y4430776D01*
X12589509Y4439665D01*
X12580365Y4444237D01*
X12562077Y4444237D01*
X12637515Y4444237D02*
G01*
X12637515Y4376165D01*
X12642088Y4362450D01*
X12651231Y4353305D01*
X12664947Y4348734D01*
X12674091Y4348734D01*
X12687554Y4353305D01*
X12696697Y4362450D01*
X12701270Y4376165D01*
X12701270Y4444237D01*
X12762991Y4444237D02*
G01*
X12762991Y4348734D01*
X12731241Y4444237D02*
G01*
X12794995Y4444237D01*
X12829540Y4421631D02*
G01*
X12829540Y4426204D01*
X12834111Y4435094D01*
X12838429Y4439665D01*
X12847574Y4444237D01*
X12865861Y4444237D01*
X12875006Y4439665D01*
X12879324Y4435094D01*
X12883895Y4426204D01*
X12883895Y4417060D01*
X12879324Y4407915D01*
X12870434Y4394200D01*
X12824968Y4348734D01*
X12888468Y4348734D01*
X9856977Y4444237D02*
G01*
X9848088Y4439665D01*
X9838943Y4430776D01*
X9834372Y4421631D01*
X9829800Y4407915D01*
X9829800Y4385310D01*
X9834372Y4371594D01*
X9838943Y4362450D01*
X9848088Y4353305D01*
X9856977Y4348734D01*
X9875265Y4348734D01*
X9884409Y4353305D01*
X9893554Y4362450D01*
X9897872Y4371594D01*
X9902443Y4385310D01*
X9902443Y4407915D01*
X9897872Y4421631D01*
X9893554Y4430776D01*
X9884409Y4439665D01*
X9875265Y4444237D01*
X9856977Y4444237D01*
X9932415Y4444237D02*
G01*
X9932415Y4376165D01*
X9936988Y4362450D01*
X9946131Y4353305D01*
X9959847Y4348734D01*
X9968991Y4348734D01*
X9982454Y4353305D01*
X9991597Y4362450D01*
X9996170Y4376165D01*
X9996170Y4444237D01*
X10057891Y4444237D02*
G01*
X10057891Y4348734D01*
X10026141Y4444237D02*
G01*
X10089895Y4444237D01*
X10129011Y4444237D02*
G01*
X10178795Y4444237D01*
X10151618Y4407915D01*
X10165334Y4407915D01*
X10174224Y4403344D01*
X10178795Y4398771D01*
X10183368Y4385310D01*
X10183368Y4376165D01*
X10178795Y4362450D01*
X10169906Y4353305D01*
X10156190Y4348734D01*
X10142474Y4348734D01*
X10129011Y4353305D01*
X10124440Y4357878D01*
X10119868Y4367021D01*
X9856977Y3948937D02*
G01*
X9848088Y3944365D01*
X9838943Y3935476D01*
X9834372Y3926331D01*
X9829800Y3912615D01*
X9829800Y3890010D01*
X9834372Y3876294D01*
X9838943Y3867150D01*
X9848088Y3858005D01*
X9856977Y3853434D01*
X9875265Y3853434D01*
X9884409Y3858005D01*
X9893554Y3867150D01*
X9897872Y3876294D01*
X9902443Y3890010D01*
X9902443Y3912615D01*
X9897872Y3926331D01*
X9893554Y3935476D01*
X9884409Y3944365D01*
X9875265Y3948937D01*
X9856977Y3948937D01*
X9932415Y3948937D02*
G01*
X9932415Y3880865D01*
X9936988Y3867150D01*
X9946131Y3858005D01*
X9959847Y3853434D01*
X9968991Y3853434D01*
X9982454Y3858005D01*
X9991597Y3867150D01*
X9996170Y3880865D01*
X9996170Y3948937D01*
X10057891Y3948937D02*
G01*
X10057891Y3853434D01*
X10026141Y3948937D02*
G01*
X10089895Y3948937D01*
X10165334Y3948937D02*
G01*
X10119868Y3885437D01*
X10187940Y3885437D01*
X10165334Y3948937D02*
G01*
X10165334Y3853434D01*
X12561824Y4701794D02*
G01*
X12643865Y4701794D01*
X12602718Y4660900D02*
G01*
X12602718Y4742687D01*
X12566395Y4772660D02*
G01*
X12561824Y4781804D01*
X12548361Y4795520D01*
X12643865Y4795520D01*
X12570968Y4830063D02*
G01*
X12566395Y4830063D01*
X12557506Y4834636D01*
X12552934Y4839207D01*
X12548361Y4848097D01*
X12548361Y4866386D01*
X12552934Y4875529D01*
X12557506Y4880102D01*
X12566395Y4884420D01*
X12575540Y4884420D01*
X12584684Y4880102D01*
X12598400Y4870957D01*
X12643865Y4825492D01*
X12643865Y4888992D01*
X12548361Y4918963D02*
G01*
X12643865Y4955539D01*
X12548361Y4991862D02*
G01*
X12643865Y4955539D01*
X12075668Y4728971D02*
G01*
X12066524Y4724654D01*
X12057634Y4715510D01*
X12053061Y4706365D01*
X12053061Y4688078D01*
X12057634Y4679187D01*
X12066524Y4670044D01*
X12075668Y4665471D01*
X12089384Y4660900D01*
X12111990Y4660900D01*
X12125706Y4665471D01*
X12134850Y4670044D01*
X12143993Y4679187D01*
X12148565Y4688078D01*
X12148565Y4706365D01*
X12143993Y4715510D01*
X12134850Y4724654D01*
X12125706Y4728971D01*
X12111990Y4728971D01*
X12111990Y4706365D02*
G01*
X12111990Y4728971D01*
X12053061Y4759197D02*
G01*
X12148565Y4759197D01*
X12053061Y4759197D02*
G01*
X12148565Y4822697D01*
X12053061Y4822697D02*
G01*
X12148565Y4822697D01*
X12053061Y4852670D02*
G01*
X12148565Y4852670D01*
X12053061Y4852670D02*
G01*
X12053061Y4884420D01*
X12057634Y4898136D01*
X12066524Y4907279D01*
X12075668Y4911852D01*
X12089384Y4916423D01*
X12111990Y4916423D01*
X12125706Y4911852D01*
X12134850Y4907279D01*
X12143993Y4898136D01*
X12148565Y4884420D01*
X12148565Y4852670D01*
X11558524Y4701794D02*
G01*
X11640565Y4701794D01*
X11599418Y4660900D02*
G01*
X11599418Y4742687D01*
X11545061Y4827270D02*
G01*
X11545061Y4781804D01*
X11585956Y4777231D01*
X11581384Y4781804D01*
X11576811Y4795520D01*
X11576811Y4808981D01*
X11581384Y4822697D01*
X11590527Y4831842D01*
X11603990Y4836413D01*
X11613134Y4836413D01*
X11626850Y4831842D01*
X11635993Y4822697D01*
X11640565Y4808981D01*
X11640565Y4795520D01*
X11635993Y4781804D01*
X11631422Y4777231D01*
X11622277Y4772660D01*
X11545061Y4866386D02*
G01*
X11640565Y4902707D01*
X11545061Y4939029D02*
G01*
X11640565Y4902707D01*
X11075161Y4889500D02*
G01*
X11170665Y4889500D01*
X11075161Y4889500D02*
G01*
X11075161Y4948681D01*
X11120627Y4889500D02*
G01*
X11120627Y4925821D01*
X11170665Y4889500D02*
G01*
X11170665Y4948681D01*
X11075161Y4978654D02*
G01*
X11170665Y4978654D01*
X11075161Y4978654D02*
G01*
X11170665Y5042154D01*
X11075161Y5042154D02*
G01*
X11170665Y5042154D01*
X11075161Y5108702D02*
G01*
X11170665Y5072126D01*
X11075161Y5108702D02*
G01*
X11170665Y5145023D01*
X11138661Y5085842D02*
G01*
X11138661Y5131307D01*
X10833861Y4889500D02*
G01*
X10929365Y4889500D01*
X10833861Y4919471D02*
G01*
X10929365Y4919471D01*
X10833861Y4919471D02*
G01*
X10929365Y4983226D01*
X10833861Y4983226D02*
G01*
X10929365Y4983226D01*
X10851895Y5013197D02*
G01*
X10847324Y5022342D01*
X10833861Y5035804D01*
X10929365Y5035804D01*
X10567161Y4889500D02*
G01*
X10662665Y4889500D01*
X10567161Y4919471D02*
G01*
X10662665Y4919471D01*
X10567161Y4919471D02*
G01*
X10662665Y4983226D01*
X10567161Y4983226D02*
G01*
X10662665Y4983226D01*
X10589768Y5017770D02*
G01*
X10585195Y5017770D01*
X10576306Y5022342D01*
X10571734Y5026660D01*
X10567161Y5035804D01*
X10567161Y5054092D01*
X10571734Y5063236D01*
X10576306Y5067807D01*
X10585195Y5072126D01*
X10594340Y5072126D01*
X10603484Y5067807D01*
X10617200Y5058663D01*
X10662665Y5013197D01*
X10662665Y5076697D01*
X10325861Y4902200D02*
G01*
X10421365Y4902200D01*
X10325861Y4932171D02*
G01*
X10421365Y4932171D01*
X10325861Y4932171D02*
G01*
X10421365Y4995926D01*
X10325861Y4995926D02*
G01*
X10421365Y4995926D01*
X10325861Y5035042D02*
G01*
X10325861Y5084826D01*
X10362184Y5057647D01*
X10362184Y5071363D01*
X10366756Y5080507D01*
X10371327Y5084826D01*
X10384790Y5089397D01*
X10393934Y5089397D01*
X10407650Y5084826D01*
X10416793Y5075936D01*
X10421365Y5062220D01*
X10421365Y5048504D01*
X10416793Y5035042D01*
X10412222Y5030470D01*
X10403077Y5025897D01*
X10084561Y4902200D02*
G01*
X10180065Y4902200D01*
X10084561Y4932171D02*
G01*
X10180065Y4932171D01*
X10084561Y4932171D02*
G01*
X10180065Y4995926D01*
X10084561Y4995926D02*
G01*
X10180065Y4995926D01*
X10084561Y5071363D02*
G01*
X10148061Y5025897D01*
X10148061Y5093970D01*
X10084561Y5071363D02*
G01*
X10180065Y5071363D01*
X9830561Y4902200D02*
G01*
X9926065Y4902200D01*
X9830561Y4902200D02*
G01*
X9830561Y4961381D01*
X9876027Y4902200D02*
G01*
X9876027Y4938521D01*
X9926065Y4902200D02*
G01*
X9926065Y4961381D01*
X9830561Y4991354D02*
G01*
X9926065Y4991354D01*
X9830561Y4991354D02*
G01*
X9926065Y5054854D01*
X9830561Y5054854D02*
G01*
X9926065Y5054854D01*
X9830561Y5084826D02*
G01*
X9926065Y5084826D01*
X9830561Y5084826D02*
G01*
X9830561Y5125720D01*
X9835134Y5139436D01*
X9839706Y5144007D01*
X9848595Y5148579D01*
X9857740Y5148579D01*
X9866884Y5144007D01*
X9871456Y5139436D01*
X9876027Y5125720D01*
X9876027Y5084826D02*
G01*
X9876027Y5125720D01*
X9880600Y5139436D01*
X9884918Y5144007D01*
X9894061Y5148579D01*
X9907777Y5148579D01*
X9916922Y5144007D01*
X9921493Y5139436D01*
X9926065Y5125720D01*
X9926065Y5084826D01*
D10*
X8953500Y-2437384D02*
G01*
X8953500Y-2515362D01*
X8958579Y-2530855D01*
X8968993Y-2541270D01*
X8984741Y-2546350D01*
X8995156Y-2546350D01*
X9010650Y-2541270D01*
X9021063Y-2530855D01*
X9026143Y-2515362D01*
X9026143Y-2437384D01*
X9112504Y-2437384D02*
G01*
X9060434Y-2510028D01*
X9138411Y-2510028D01*
X9112504Y-2437384D02*
G01*
X9112504Y-2546350D01*
D11*
X8597900Y-3122421D02*
G01*
X8644127Y-3316223D01*
X8690356Y-3122421D02*
G01*
X8644127Y-3316223D01*
X8690356Y-3122421D02*
G01*
X8736329Y-3316223D01*
X8782558Y-3122421D02*
G01*
X8736329Y-3316223D01*
X8843518Y-3122421D02*
G01*
X8843518Y-3316223D01*
X8843518Y-3224021D02*
G01*
X8871204Y-3196336D01*
X8889745Y-3186937D01*
X8917431Y-3186937D01*
X8935974Y-3196336D01*
X8945118Y-3224021D01*
X8945118Y-3316223D01*
X9006077Y-3242310D02*
G01*
X9117075Y-3242310D01*
X9117075Y-3224021D01*
X9107677Y-3205479D01*
X9098534Y-3196336D01*
X9079991Y-3186937D01*
X9052306Y-3186937D01*
X9033763Y-3196336D01*
X9015475Y-3214623D01*
X9006077Y-3242310D01*
X9006077Y-3260852D01*
X9015475Y-3288537D01*
X9033763Y-3307079D01*
X9052306Y-3316223D01*
X9079991Y-3316223D01*
X9098534Y-3307079D01*
X9117075Y-3288537D01*
X9178036Y-3242310D02*
G01*
X9288779Y-3242310D01*
X9288779Y-3224021D01*
X9279636Y-3205479D01*
X9270238Y-3196336D01*
X9251950Y-3186937D01*
X9224009Y-3186937D01*
X9205722Y-3196336D01*
X9187179Y-3214623D01*
X9178036Y-3242310D01*
X9178036Y-3260852D01*
X9187179Y-3288537D01*
X9205722Y-3307079D01*
X9224009Y-3316223D01*
X9251950Y-3316223D01*
X9270238Y-3307079D01*
X9288779Y-3288537D01*
X9349740Y-3122421D02*
G01*
X9349740Y-3316223D01*
X9419843Y-3168650D02*
G01*
X9419843Y-3159252D01*
X9429241Y-3140710D01*
X9438386Y-3131565D01*
X9456927Y-3122421D01*
X9493758Y-3122421D01*
X9512300Y-3131565D01*
X9521443Y-3140710D01*
X9530841Y-3159252D01*
X9530841Y-3177794D01*
X9521443Y-3196336D01*
X9503156Y-3224021D01*
X9410700Y-3316223D01*
X9539986Y-3316223D01*
X8973058Y-2578607D02*
G01*
X8973058Y-2744723D01*
X8890000Y-2661665D02*
G01*
X9056370Y-2661665D01*
X9182100Y-2661665D02*
G01*
X9348470Y-2661665D01*
D10*
X10223500Y-2437384D02*
G01*
X10223500Y-2515362D01*
X10228579Y-2530855D01*
X10238993Y-2541270D01*
X10254741Y-2546350D01*
X10265156Y-2546350D01*
X10280650Y-2541270D01*
X10291063Y-2530855D01*
X10296143Y-2515362D01*
X10296143Y-2437384D01*
X10392918Y-2437384D02*
G01*
X10340847Y-2437384D01*
X10335768Y-2484120D01*
X10340847Y-2479039D01*
X10356595Y-2473705D01*
X10372090Y-2473705D01*
X10387584Y-2479039D01*
X10397997Y-2489200D01*
X10403331Y-2504947D01*
X10403331Y-2515362D01*
X10397997Y-2530855D01*
X10387584Y-2541270D01*
X10372090Y-2546350D01*
X10356595Y-2546350D01*
X10340847Y-2541270D01*
X10335768Y-2536189D01*
X10330434Y-2525776D01*
D11*
X9867900Y-3109721D02*
G01*
X9914127Y-3303523D01*
X9960356Y-3109721D02*
G01*
X9914127Y-3303523D01*
X9960356Y-3109721D02*
G01*
X10006329Y-3303523D01*
X10052558Y-3109721D02*
G01*
X10006329Y-3303523D01*
X10113518Y-3109721D02*
G01*
X10113518Y-3303523D01*
X10113518Y-3211321D02*
G01*
X10141204Y-3183636D01*
X10159745Y-3174237D01*
X10187431Y-3174237D01*
X10205974Y-3183636D01*
X10215118Y-3211321D01*
X10215118Y-3303523D01*
X10276077Y-3229610D02*
G01*
X10387075Y-3229610D01*
X10387075Y-3211321D01*
X10377677Y-3192779D01*
X10368534Y-3183636D01*
X10349991Y-3174237D01*
X10322306Y-3174237D01*
X10303763Y-3183636D01*
X10285475Y-3201923D01*
X10276077Y-3229610D01*
X10276077Y-3248152D01*
X10285475Y-3275837D01*
X10303763Y-3294379D01*
X10322306Y-3303523D01*
X10349991Y-3303523D01*
X10368534Y-3294379D01*
X10387075Y-3275837D01*
X10448036Y-3229610D02*
G01*
X10558779Y-3229610D01*
X10558779Y-3211321D01*
X10549636Y-3192779D01*
X10540238Y-3183636D01*
X10521950Y-3174237D01*
X10494009Y-3174237D01*
X10475722Y-3183636D01*
X10457179Y-3201923D01*
X10448036Y-3229610D01*
X10448036Y-3248152D01*
X10457179Y-3275837D01*
X10475722Y-3294379D01*
X10494009Y-3303523D01*
X10521950Y-3303523D01*
X10540238Y-3294379D01*
X10558779Y-3275837D01*
X10619740Y-3109721D02*
G01*
X10619740Y-3303523D01*
X10822940Y-3146552D02*
G01*
X10841481Y-3137407D01*
X10869168Y-3109721D01*
X10869168Y-3303523D01*
X10243058Y-2578607D02*
G01*
X10243058Y-2744723D01*
X10160000Y-2661665D02*
G01*
X10326370Y-2661665D01*
X10452100Y-2661665D02*
G01*
X10618470Y-2661665D01*
D10*
X11607800Y-2437378D02*
G01*
X11607800Y-2515356D01*
X11612879Y-2530850D01*
X11623293Y-2541264D01*
X11639041Y-2546344D01*
X11649456Y-2546344D01*
X11664950Y-2541264D01*
X11675363Y-2530850D01*
X11680443Y-2515356D01*
X11680443Y-2437378D01*
X11777218Y-2452872D02*
G01*
X11771884Y-2442458D01*
X11756390Y-2437378D01*
X11745975Y-2437378D01*
X11730481Y-2442458D01*
X11720068Y-2458206D01*
X11714734Y-2484114D01*
X11714734Y-2510022D01*
X11720068Y-2530850D01*
X11730481Y-2541264D01*
X11745975Y-2546344D01*
X11751309Y-2546344D01*
X11766804Y-2541264D01*
X11777218Y-2530850D01*
X11782297Y-2515356D01*
X11782297Y-2510022D01*
X11777218Y-2494528D01*
X11766804Y-2484114D01*
X11751309Y-2479034D01*
X11745975Y-2479034D01*
X11730481Y-2484114D01*
X11720068Y-2494528D01*
X11714734Y-2510022D01*
D11*
X11112500Y-3109721D02*
G01*
X11186413Y-3303523D01*
X11260327Y-3109721D02*
G01*
X11186413Y-3303523D01*
X11432031Y-3174237D02*
G01*
X11432031Y-3303523D01*
X11432031Y-3201923D02*
G01*
X11413490Y-3183636D01*
X11395202Y-3174237D01*
X11367515Y-3174237D01*
X11348974Y-3183636D01*
X11330431Y-3201923D01*
X11321288Y-3229610D01*
X11321288Y-3248152D01*
X11330431Y-3275837D01*
X11348974Y-3294379D01*
X11367515Y-3303523D01*
X11395202Y-3303523D01*
X11413490Y-3294379D01*
X11432031Y-3275837D01*
X11603990Y-3201923D02*
G01*
X11585447Y-3183636D01*
X11566906Y-3174237D01*
X11539220Y-3174237D01*
X11520677Y-3183636D01*
X11502390Y-3201923D01*
X11492991Y-3229610D01*
X11492991Y-3248152D01*
X11502390Y-3275837D01*
X11520677Y-3294379D01*
X11539220Y-3303523D01*
X11566906Y-3303523D01*
X11585447Y-3294379D01*
X11603990Y-3275837D01*
X11664950Y-3174237D02*
G01*
X11664950Y-3266694D01*
X11674093Y-3294379D01*
X11692636Y-3303523D01*
X11720322Y-3303523D01*
X11738609Y-3294379D01*
X11766550Y-3266694D01*
X11766550Y-3174237D02*
G01*
X11766550Y-3303523D01*
X11827509Y-3174237D02*
G01*
X11827509Y-3266694D01*
X11836654Y-3294379D01*
X11855195Y-3303523D01*
X11882881Y-3303523D01*
X11901170Y-3294379D01*
X11929109Y-3266694D01*
X11929109Y-3174237D02*
G01*
X11929109Y-3303523D01*
X11990070Y-3174237D02*
G01*
X11990070Y-3303523D01*
X11990070Y-3211321D02*
G01*
X12017756Y-3183636D01*
X12036043Y-3174237D01*
X12063729Y-3174237D01*
X12082272Y-3183636D01*
X12091670Y-3211321D01*
X12091670Y-3303523D01*
X12091670Y-3211321D02*
G01*
X12119356Y-3183636D01*
X12137643Y-3174237D01*
X12165329Y-3174237D01*
X12183872Y-3183636D01*
X12193270Y-3211321D01*
X12193270Y-3303523D01*
X12254229Y-3368294D02*
G01*
X12420345Y-3368294D01*
X12619990Y-3155950D02*
G01*
X12610591Y-3137407D01*
X12592050Y-3118865D01*
X12573761Y-3109721D01*
X12536677Y-3109721D01*
X12518390Y-3118865D01*
X12499847Y-3137407D01*
X12490450Y-3155950D01*
X12481306Y-3183636D01*
X12481306Y-3229610D01*
X12490450Y-3257550D01*
X12499847Y-3275837D01*
X12518390Y-3294379D01*
X12536677Y-3303523D01*
X12573761Y-3303523D01*
X12592050Y-3294379D01*
X12610591Y-3275837D01*
X12619990Y-3257550D01*
X12680950Y-3109721D02*
G01*
X12680950Y-3303523D01*
X12741909Y-3229610D02*
G01*
X12852654Y-3229610D01*
X12852654Y-3211321D01*
X12843509Y-3192779D01*
X12834111Y-3183636D01*
X12815570Y-3174237D01*
X12787884Y-3174237D01*
X12769595Y-3183636D01*
X12751054Y-3201923D01*
X12741909Y-3229610D01*
X12741909Y-3248152D01*
X12751054Y-3275837D01*
X12769595Y-3294379D01*
X12787884Y-3303523D01*
X12815570Y-3303523D01*
X12834111Y-3294379D01*
X12852654Y-3275837D01*
X13024358Y-3174237D02*
G01*
X13024358Y-3303523D01*
X13024358Y-3201923D02*
G01*
X13006070Y-3183636D01*
X12987527Y-3174237D01*
X12959841Y-3174237D01*
X12941300Y-3183636D01*
X12922758Y-3201923D01*
X12913613Y-3229610D01*
X12913613Y-3248152D01*
X12922758Y-3275837D01*
X12941300Y-3294379D01*
X12959841Y-3303523D01*
X12987527Y-3303523D01*
X13006070Y-3294379D01*
X13024358Y-3275837D01*
X13085318Y-3174237D02*
G01*
X13085318Y-3303523D01*
X13085318Y-3211321D02*
G01*
X13113004Y-3183636D01*
X13131545Y-3174237D01*
X13159231Y-3174237D01*
X13177774Y-3183636D01*
X13186918Y-3211321D01*
X13186918Y-3303523D01*
X13247877Y-3229610D02*
G01*
X13358875Y-3229610D01*
X13358875Y-3211321D01*
X13349477Y-3192779D01*
X13340334Y-3183636D01*
X13321791Y-3174237D01*
X13294106Y-3174237D01*
X13275563Y-3183636D01*
X13257275Y-3201923D01*
X13247877Y-3229610D01*
X13247877Y-3248152D01*
X13257275Y-3275837D01*
X13275563Y-3294379D01*
X13294106Y-3303523D01*
X13321791Y-3303523D01*
X13340334Y-3294379D01*
X13358875Y-3275837D01*
X13419836Y-3174237D02*
G01*
X13419836Y-3303523D01*
X13419836Y-3229610D02*
G01*
X13428979Y-3201923D01*
X13447522Y-3183636D01*
X13465809Y-3174237D01*
X13493750Y-3174237D01*
X11627358Y-2578602D02*
G01*
X11627358Y-2744718D01*
X11544300Y-2661660D02*
G01*
X11710670Y-2661660D01*
X11836400Y-2661660D02*
G01*
X12002770Y-2661660D01*
D10*
X10325100Y997965D02*
G01*
X10325100Y919987D01*
X10330179Y904494D01*
X10340593Y894079D01*
X10356341Y889000D01*
X10366756Y889000D01*
X10382250Y894079D01*
X10392663Y904494D01*
X10397743Y919987D01*
X10397743Y997965D01*
X10504931Y997965D02*
G01*
X10452861Y889000D01*
X10432034Y997965D02*
G01*
X10504931Y997965D01*
X1955800Y900684D02*
G01*
X1955800Y978662D01*
X1950720Y994155D01*
X1940306Y1004570D01*
X1924557Y1009650D01*
X1914144Y1009650D01*
X1898650Y1004570D01*
X1888236Y994155D01*
X1883155Y978662D01*
X1883155Y900684D01*
X1822704Y900684D02*
G01*
X1838452Y905763D01*
X1843531Y916178D01*
X1843531Y926592D01*
X1838452Y937005D01*
X1828037Y942339D01*
X1807210Y947420D01*
X1791715Y952500D01*
X1781302Y962913D01*
X1775968Y973328D01*
X1775968Y989076D01*
X1781302Y999489D01*
X1786381Y1004570D01*
X1802129Y1009650D01*
X1822704Y1009650D01*
X1838452Y1004570D01*
X1843531Y999489D01*
X1848865Y989076D01*
X1848865Y973328D01*
X1843531Y962913D01*
X1833118Y952500D01*
X1817623Y947420D01*
X1796795Y942339D01*
X1786381Y937005D01*
X1781302Y926592D01*
X1781302Y916178D01*
X1786381Y905763D01*
X1802129Y900684D01*
X1822704Y900684D01*
D12*
X2374900Y3358642D02*
G01*
X2374900Y3503929D01*
X2329179Y3358642D02*
G01*
X2329179Y3503929D01*
X2329179Y3358642D02*
G01*
X2273808Y3503929D01*
X2218436Y3358642D02*
G01*
X2273808Y3503929D01*
X2218436Y3358642D02*
G01*
X2218436Y3503929D01*
X2172715Y3358642D02*
G01*
X2172715Y3462528D01*
X2165604Y3483355D01*
X2151888Y3497071D01*
X2131059Y3503929D01*
X2117090Y3503929D01*
X2096515Y3497071D01*
X2082545Y3483355D01*
X2075688Y3462528D01*
X2075688Y3358642D01*
X1923287Y3358642D02*
G01*
X1923287Y3503929D01*
X1923287Y3358642D02*
G01*
X1867915Y3503929D01*
X1812289Y3358642D02*
G01*
X1867915Y3503929D01*
X1812289Y3358642D02*
G01*
X1812289Y3503929D01*
X1732026Y3407155D02*
G01*
X1745995Y3414013D01*
X1759712Y3427729D01*
X1766570Y3448557D01*
X1766570Y3462528D01*
X1759712Y3483355D01*
X1745995Y3497071D01*
X1732026Y3503929D01*
X1711197Y3503929D01*
X1697481Y3497071D01*
X1683512Y3483355D01*
X1676654Y3462528D01*
X1676654Y3448557D01*
X1683512Y3427729D01*
X1697481Y3414013D01*
X1711197Y3407155D01*
X1732026Y3407155D01*
X1547876Y3358642D02*
G01*
X1547876Y3503929D01*
X1547876Y3427729D02*
G01*
X1561592Y3414013D01*
X1575562Y3407155D01*
X1596389Y3407155D01*
X1610105Y3414013D01*
X1624076Y3427729D01*
X1630934Y3448557D01*
X1630934Y3462528D01*
X1624076Y3483355D01*
X1610105Y3497071D01*
X1596389Y3503929D01*
X1575562Y3503929D01*
X1561592Y3497071D01*
X1547876Y3483355D01*
X1502155Y3407155D02*
G01*
X1502155Y3476244D01*
X1495044Y3497071D01*
X1481328Y3503929D01*
X1460500Y3503929D01*
X1446529Y3497071D01*
X1425955Y3476244D01*
X1425955Y3407155D02*
G01*
X1425955Y3503929D01*
X1380236Y3358642D02*
G01*
X1380236Y3503929D01*
X1334515Y3448557D02*
G01*
X1251204Y3448557D01*
X1251204Y3434842D01*
X1258315Y3420871D01*
X1265173Y3414013D01*
X1278889Y3407155D01*
X1299718Y3407155D01*
X1313687Y3414013D01*
X1327404Y3427729D01*
X1334515Y3448557D01*
X1334515Y3462528D01*
X1327404Y3483355D01*
X1313687Y3497071D01*
X1299718Y3503929D01*
X1278889Y3503929D01*
X1265173Y3497071D01*
X1251204Y3483355D01*
D10*
X6616700Y6008115D02*
G01*
X6616700Y5930137D01*
X6621779Y5914644D01*
X6632193Y5904229D01*
X6647941Y5899150D01*
X6658356Y5899150D01*
X6673850Y5904229D01*
X6684263Y5914644D01*
X6689343Y5930137D01*
X6689343Y6008115D01*
X6791197Y5971794D02*
G01*
X6786118Y5956300D01*
X6775704Y5945886D01*
X6760209Y5940552D01*
X6754875Y5940552D01*
X6739381Y5945886D01*
X6728968Y5956300D01*
X6723634Y5971794D01*
X6723634Y5976873D01*
X6728968Y5992621D01*
X6739381Y6003036D01*
X6754875Y6008115D01*
X6760209Y6008115D01*
X6775704Y6003036D01*
X6786118Y5992621D01*
X6791197Y5971794D01*
X6791197Y5945886D01*
X6786118Y5919723D01*
X6775704Y5904229D01*
X6760209Y5899150D01*
X6749795Y5899150D01*
X6734047Y5904229D01*
X6728968Y5914644D01*
X6825488Y5862573D02*
G01*
X6918959Y5862573D01*
X6953250Y6008115D02*
G01*
X6953250Y5899150D01*
X7026147Y6008115D02*
G01*
X7026147Y5899150D01*
X6953250Y5956300D02*
G01*
X7026147Y5956300D01*
X7138415Y5982207D02*
G01*
X7133081Y5992621D01*
X7122668Y6003036D01*
X7112254Y6008115D01*
X7091679Y6008115D01*
X7081265Y6003036D01*
X7070852Y5992621D01*
X7065518Y5982207D01*
X7060438Y5966460D01*
X7060438Y5940552D01*
X7065518Y5925057D01*
X7070852Y5914644D01*
X7081265Y5904229D01*
X7091679Y5899150D01*
X7112254Y5899150D01*
X7122668Y5904229D01*
X7133081Y5914644D01*
X7138415Y5925057D01*
X7172706Y5945886D02*
G01*
X7266177Y5945886D01*
X7373111Y5992621D02*
G01*
X7362697Y6003036D01*
X7347204Y6008115D01*
X7326375Y6008115D01*
X7310881Y6003036D01*
X7300468Y5992621D01*
X7300468Y5982207D01*
X7305547Y5971794D01*
X7310881Y5966460D01*
X7321295Y5961379D01*
X7352284Y5950965D01*
X7362697Y5945886D01*
X7368031Y5940552D01*
X7373111Y5930137D01*
X7373111Y5914644D01*
X7362697Y5904229D01*
X7347204Y5899150D01*
X7326375Y5899150D01*
X7310881Y5904229D01*
X7300468Y5914644D01*
X7407402Y6008115D02*
G01*
X7407402Y5899150D01*
X7407402Y6008115D02*
G01*
X7454138Y6008115D01*
X7469886Y6003036D01*
X7474965Y5997702D01*
X7480300Y5987287D01*
X7480300Y5976873D01*
X7474965Y5966460D01*
X7469886Y5961379D01*
X7454138Y5956300D01*
X7407402Y5956300D01*
X7443724Y5956300D02*
G01*
X7480300Y5899150D01*
X7545577Y6008115D02*
G01*
X7530084Y6003036D01*
X7519670Y5987287D01*
X7514590Y5961379D01*
X7514590Y5945886D01*
X7519670Y5919723D01*
X7530084Y5904229D01*
X7545577Y5899150D01*
X7555991Y5899150D01*
X7571740Y5904229D01*
X7581900Y5919723D01*
X7587234Y5945886D01*
X7587234Y5961379D01*
X7581900Y5987287D01*
X7571740Y6003036D01*
X7555991Y6008115D01*
X7545577Y6008115D01*
X7673340Y6008115D02*
G01*
X7621524Y5935471D01*
X7699502Y5935471D01*
X7673340Y6008115D02*
G01*
X7673340Y5899150D01*
X4787900Y6033515D02*
G01*
X4787900Y5955537D01*
X4792979Y5940044D01*
X4803393Y5929629D01*
X4819141Y5924550D01*
X4829556Y5924550D01*
X4845050Y5929629D01*
X4855463Y5940044D01*
X4860543Y5955537D01*
X4860543Y6033515D01*
X4894834Y6012687D02*
G01*
X4905247Y6018021D01*
X4920995Y6033515D01*
X4920995Y5924550D01*
X4986274Y6033515D02*
G01*
X4970779Y6028436D01*
X4960365Y6012687D01*
X4955286Y5986779D01*
X4955286Y5971286D01*
X4960365Y5945123D01*
X4970779Y5929629D01*
X4986274Y5924550D01*
X4996688Y5924550D01*
X5012436Y5929629D01*
X5022850Y5945123D01*
X5027929Y5971286D01*
X5027929Y5986779D01*
X5022850Y6012687D01*
X5012436Y6028436D01*
X4996688Y6033515D01*
X4986274Y6033515D01*
X5062220Y5887973D02*
G01*
X5155691Y5887973D01*
X5189981Y6033515D02*
G01*
X5189981Y5924550D01*
X5262879Y6033515D02*
G01*
X5262879Y5924550D01*
X5189981Y5981700D02*
G01*
X5262879Y5981700D01*
X5374893Y6007607D02*
G01*
X5369813Y6018021D01*
X5359400Y6028436D01*
X5348986Y6033515D01*
X5328158Y6033515D01*
X5317743Y6028436D01*
X5307329Y6018021D01*
X5302250Y6007607D01*
X5297170Y5991860D01*
X5297170Y5965952D01*
X5302250Y5950457D01*
X5307329Y5940044D01*
X5317743Y5929629D01*
X5328158Y5924550D01*
X5348986Y5924550D01*
X5359400Y5929629D01*
X5369813Y5940044D01*
X5374893Y5950457D01*
X5409184Y5971286D02*
G01*
X5502909Y5971286D01*
X5609843Y6018021D02*
G01*
X5599429Y6028436D01*
X5583936Y6033515D01*
X5563108Y6033515D01*
X5547359Y6028436D01*
X5537200Y6018021D01*
X5537200Y6007607D01*
X5542279Y5997194D01*
X5547359Y5991860D01*
X5557774Y5986779D01*
X5589015Y5976365D01*
X5599429Y5971286D01*
X5604509Y5965952D01*
X5609843Y5955537D01*
X5609843Y5940044D01*
X5599429Y5929629D01*
X5583936Y5924550D01*
X5563108Y5924550D01*
X5547359Y5929629D01*
X5537200Y5940044D01*
X5644134Y6033515D02*
G01*
X5644134Y5924550D01*
X5644134Y6033515D02*
G01*
X5690870Y6033515D01*
X5706363Y6028436D01*
X5711697Y6023102D01*
X5716777Y6012687D01*
X5716777Y6002273D01*
X5711697Y5991860D01*
X5706363Y5986779D01*
X5690870Y5981700D01*
X5644134Y5981700D01*
X5680456Y5981700D02*
G01*
X5716777Y5924550D01*
X5782309Y6033515D02*
G01*
X5766815Y6028436D01*
X5756402Y6012687D01*
X5751068Y5986779D01*
X5751068Y5971286D01*
X5756402Y5945123D01*
X5766815Y5929629D01*
X5782309Y5924550D01*
X5792724Y5924550D01*
X5808218Y5929629D01*
X5818631Y5945123D01*
X5823965Y5971286D01*
X5823965Y5986779D01*
X5818631Y6012687D01*
X5808218Y6028436D01*
X5792724Y6033515D01*
X5782309Y6033515D01*
X5910072Y6033515D02*
G01*
X5858256Y5960871D01*
X5935979Y5960871D01*
X5910072Y6033515D02*
G01*
X5910072Y5924550D01*
G36*
X8901684Y-235610D02*
G01*
X8900668Y-307594D01*
X8926677Y-271576D01*
G37*
D13*
X2590800Y4709160D02*
G01*
X2590800Y4556760D01*
X2953859Y5397502D02*
G01*
X3048000Y5397502D01*
X3048000Y5397502D02*
G01*
X3048000Y5713105D01*
X3048000Y5713105D02*
G01*
X2559911Y5713105D01*
X2113688Y5713105D02*
G01*
X1625600Y5713105D01*
X1625600Y5713105D02*
G01*
X1625600Y5397502D01*
X1625600Y5397502D02*
G01*
X1745630Y5397502D01*
X2489200Y5382260D02*
G01*
X2692400Y5382260D01*
X2590800Y5483860D02*
G01*
X2590800Y5280660D01*
X13055600Y-345439D02*
G01*
X13055600Y-497839D01*
X13418659Y342902D02*
G01*
X13512800Y342902D01*
X13512800Y342902D02*
G01*
X13512800Y658505D01*
X13512800Y658505D02*
G01*
X13024711Y658505D01*
X12578488Y658505D02*
G01*
X12090400Y658505D01*
X12090400Y658505D02*
G01*
X12090400Y342902D01*
X12090400Y342902D02*
G01*
X12210430Y342902D01*
X12954000Y327660D02*
G01*
X13157200Y327660D01*
X13055600Y429260D02*
G01*
X13055600Y226060D01*
D14*
X9032054Y-1740992D02*
G01*
X8717094Y-1740992D01*
X9034594Y-1901012D02*
G01*
X8714554Y-1901012D01*
X8906924Y-1740992D02*
G01*
X8906550Y-1901012D01*
D13*
X8949674Y-198602D02*
G01*
X9064673Y-198602D01*
X9064673Y-343601D01*
X8944673Y-343601D01*
X8882674Y-344601D02*
G01*
X8758674Y-344601D01*
X8758674Y-199603D01*
X8882674Y-199603D01*
X9064673Y-198602D02*
G01*
X9067675Y-198602D01*
X9087675Y-218602D01*
X9087675Y-320601D01*
X9084673Y-323601D01*
X9064673Y-343601D01*
D10*
X8929895Y-1404462D02*
G01*
X9025783Y-1404462D01*
X9025783Y-1272341D01*
X8929895Y-1272341D01*
X8844653Y-1404462D02*
G01*
X8748765Y-1404462D01*
X8748765Y-1272341D01*
X8844653Y-1272341D01*
X8929895Y-896462D02*
G01*
X9025783Y-896462D01*
X9025783Y-764341D01*
X8929895Y-764341D01*
X8844653Y-896462D02*
G01*
X8748765Y-896462D01*
X8748765Y-764341D01*
X8844653Y-764341D01*
D11*
X3659365Y2476500D02*
G01*
X5945365Y2476500D01*
X5945365Y4025900D02*
G01*
X5945365Y2476500D01*
D15*
X3735565Y2578100D02*
G01*
X3735565Y2603500D01*
X3735565Y2781300D01*
X3964165Y2781300D01*
X3964165Y3009900D01*
X3735565Y3009900D01*
X3735565Y3238500D01*
X3964165Y3238500D01*
X3964165Y3467100D01*
X3735565Y3467100D01*
X3735565Y3873500D01*
X3735565Y2578100D02*
G01*
X4065765Y2578100D01*
X3735565Y3695700D02*
G01*
X4091241Y3695572D01*
X3735565Y3873500D02*
G01*
X4091241Y3873372D01*
D11*
X3659365Y4025900D02*
G01*
X5945365Y4025900D01*
X3659365Y4025900D02*
G01*
X3659365Y2476500D01*
X5818365Y3898900D02*
G01*
X5818365Y2628900D01*
X4294365Y3898900D02*
G01*
X4294365Y2628900D01*
X4294365Y3898900D02*
G01*
X5818365Y3898900D01*
X4294365Y2628900D02*
G01*
X5818365Y2628900D01*
D16*
X8737587Y4660900D02*
G01*
X3657587Y4660900D01*
D11*
X3657587Y4660900D02*
G01*
X3657587Y1866900D01*
X8737587Y1866900D02*
G01*
X3657587Y1866900D01*
D16*
X8733777Y3644900D02*
G01*
X8200377Y3644900D01*
X8200377Y2882900D01*
X8733777Y2882900D01*
X8733777Y2882900D02*
G01*
X8835377Y2882900D01*
X8835377Y3644900D01*
X8733777Y3644900D01*
X8733777Y1866900D02*
G01*
X8733777Y2882900D01*
X8733777Y3644900D02*
G01*
X8733777Y4660900D01*
D12*
X3848100Y1155700D02*
G01*
X8168106Y1155700D01*
X8168106Y-3164306D01*
X3848100Y-3164306D01*
X3848100Y1155700D01*
X9182100Y5613400D02*
G01*
X13502106Y5613400D01*
X13502106Y1293393D01*
X9182100Y1293393D01*
X9182100Y5613400D01*
X8851900Y-2794000D02*
G01*
X9385300Y-2794000D01*
X9385300Y-3048000D01*
X8851900Y-3048000D01*
X8851900Y-2794000D01*
X10121900Y-2794000D02*
G01*
X10655300Y-2794000D01*
X10655300Y-3048000D01*
X10121900Y-3048000D01*
X10121900Y-2794000D01*
X11506200Y-2793994D02*
G01*
X12039600Y-2793994D01*
X12039600Y-3047994D01*
X11506200Y-3047994D01*
X11506200Y-2793994D01*
X9740900Y857250D02*
G01*
X10940897Y857250D01*
X10940897Y-342747D01*
X9740900Y-342747D01*
X9740900Y857250D01*
X2705100Y1041400D02*
G01*
X1206500Y1041400D01*
X1206500Y3556000D01*
X2705100Y3556000D01*
X2705100Y1041400D01*
X6629400Y5486400D02*
G01*
X7645400Y5486400D01*
X7645400Y5130800D01*
X6629400Y5130800D01*
X6629400Y5486400D01*
X4826000Y5537200D02*
G01*
X5842000Y5537200D01*
X5842000Y5181600D01*
X4826000Y5181600D01*
X4826000Y5537200D01*
D13*
G75*
G01*
X2107054Y5672643D02*
G03*
X2124408Y4303951I229744J-681543D01*
G75*
G01*
X2552205Y4299339D02*
G03*
X2554310Y5682204I-215402J691762D01*
G75*
G01*
X12571854Y618043D02*
G03*
X12589208Y-750649I229744J-681543D01*
G75*
G01*
X13017005Y-755261D02*
G03*
X13019110Y627604I-215402J691762D01*
D10*
G75*
G01*
X2743200Y-1587500D02*
G03*
X2743937Y-1587500I368J-698500D01*
G75*
G01*
X2743200Y-2159000D02*
G03*
X2743860Y-2159000I330J-127000D01*
G75*
G01*
X2019300Y152400D02*
G03*
X2020037Y152400I368J-698500D01*
G75*
G01*
X2019300Y-419100D02*
G03*
X2019960Y-419100I330J-127000D01*
D12*
G75*
G01
X10652379Y260350D02*
G03X10652379Y260350I-301879J0D01*
M02*
